<svg xmlns="http://www.w3.org/2000/svg" xmlns:xlink="http://www.w3.org/1999/xlink" width="1040" height="221" viewBox="0 0 1040 221"><defs><style>.a{fill:url(#a);}.b{fill:url(#b);}.c{clip-path:url(#c);}.d{fill:#d6f6be;opacity:0.09;mix-blend-mode:screen;}.d,.e,.f{isolation:isolate;}.e{fill:#c92aef;opacity:0.41;}.e,.f{mix-blend-mode:multiply;}.f{fill:#db2aef;}.ag,.g{fill:#feafaf;}.h,.v{fill:#fecac6;}.h,.u{opacity:0.8;}.i{fill:url(#d);}.j{fill:url(#e);}.k{fill:#ed3b56;}.l{fill:#ff5770;}.m{fill:#ffc2cb;}.n{fill:#303330;}.o{fill:#ccc;}.p{fill:url(#f);}.q{fill:#dbdbdb;}.r{fill:#e6e6e6;}.s,.z{fill:#fff;}.t{fill:#fe6666;}.w{fill:#bf8686;}.x{fill:#d48563;}.y{fill:#c76d46;}.z{opacity:0.6;}.aa,.ah{fill:none;}.aa{stroke:#692c12;stroke-width:1.107px;}.aa,.ag,.ah{stroke-miterlimit:10;}.ab{fill:#b3b3b3;}.ac{fill:#fff2c2;}.ad{fill:#fed3d0;}.ae{fill:#fe8484;}.af{fill:#442a29;}.ag,.ah{stroke:#c94949;stroke-linecap:round;stroke-width:1.393px;}.ai{fill:url(#g);}.aj{fill:#ab2b3e;}.ak{fill:url(#h);}.al{fill:#f2f2f2;}.am{fill:#ff4f6a;}.an{fill:#ff7085;}</style><linearGradient id="a" x1="0.259" y1="2.03" x2="0.597" y2="0.133" gradientUnits="objectBoundingBox"><stop offset="0" stop-color="#d71866"/><stop offset="1" stop-color="#ff0e47"/></linearGradient><linearGradient id="b" x1="0.259" y1="2.03" x2="0.597" y2="0.133" gradientUnits="objectBoundingBox"><stop offset="0" stop-color="#d7183f"/><stop offset="1" stop-color="#ff0e2f"/></linearGradient><clipPath id="c"><rect class="a" width="1039" height="220" rx="10" transform="translate(40 960)"/></clipPath><linearGradient id="d" x1="27.1" y1="0.211" x2="28.033" y2="1.832" gradientUnits="objectBoundingBox"><stop offset="0.003" stop-color="#bf8686"/><stop offset="1" stop-color="#bf8686" stop-opacity="0"/></linearGradient><linearGradient id="e" x1="0.308" y1="0.211" x2="1.24" y2="1.832" xlink:href="#d"/><linearGradient id="f" x1="0.5" y1="-0.117" x2="0.5" y2="0.929" gradientUnits="objectBoundingBox"><stop offset="0.237" stop-color="#dbdbdb"/><stop offset="1" stop-color="#dbdbdb" stop-opacity="0"/></linearGradient><linearGradient id="g" x1="0.5" y1="0.097" x2="0.5" y2="0.891" xlink:href="#d"/><linearGradient id="h" x1="0.551" y1="-0.5" x2="0.474" y2="1.566" xlink:href="#d"/></defs><g transform="translate(-40 -947)"><path class="b" d="M10,0H990c5.523,0,10,6.006,10,13.415V206.585c0,7.409-4.477,13.415-10,13.415H10c-5.523,0-10-6.006-10-13.415V13.415C0,6.006,4.477,0,10,0Z" transform="translate(40 948)"/><g class="c" transform="translate(1 -13)"><path class="d" d="M342.288,333.191V306.059H329.839v27.132H315.1v-41.97H304.287V259.85h-8.845V227.63H277.1v32.22h-8.845v31.372H257.769V253.49h-5.9V234.413h-3.6V253.49H227.3v120.4H211.251V361.172h-9.828V373.89H185.372v-40.7H156.544V306.059H144.1v27.132h-.655v52.145h-13.1V354.812H114.612v30.524h-13.1V291.221H91.353V259.85H54.008v31.372H44.18V456.982H357.03V333.191Z" transform="translate(47.422 781.439)"/><path class="d" d="M342.288,333.191V306.059H329.839v27.132H315.1v-41.97H304.287V259.85h-8.845V227.63H277.1v32.22h-8.845v31.372H257.769V253.49h-5.9V234.413h-3.6V253.49H227.3v120.4H211.251V361.172h-9.828V373.89H185.372v-40.7H156.544V306.059H144.1v27.132h-.655v52.145h-13.1V354.812H114.612v30.524h-13.1V291.221H91.353V259.85H54.008v31.372H44.18V456.982H357.03V333.191Z" transform="translate(360.271 781.439)"/><ellipse class="e" cx="120" cy="120.353" rx="120" ry="120.353" transform="translate(740 949.647)"/><ellipse class="f" cx="63.758" cy="59.706" rx="63.758" ry="59.706" transform="matrix(0.999, -0.035, 0.035, 0.999, 376.521, 1154.983)"/><g transform="translate(660.274 929.6)"><g transform="translate(139.039 43.4)"><g transform="translate(0 125.388)"><path class="g" d="M144.923,343.239h0a8.079,8.079,0,0,0,10.149-5.444l14.113-46.567a8.079,8.079,0,0,0-5.444-10.149h0a8.079,8.079,0,0,0-10.149,5.444l-14.113,46.567A8.123,8.123,0,0,0,144.923,343.239Z" transform="translate(-139.077 -280.666)"/><path class="h" d="M140.128,337.008l14.113-46.567c1.321-5.021,5.867-7.453,10.149-6.184a8.177,8.177,0,0,1,5.074,4.44,8.158,8.158,0,0,0-15.963-2.273l-14.113,46.567a8.133,8.133,0,0,0,.37,5.709C139.811,337.906,139.917,337.114,140.128,337.008Z" transform="translate(-139.039 -280.619)"/><path class="i" d="M158.5,300.431l4.229-14.007a8.123,8.123,0,0,1,10.149-5.444h0a8.123,8.123,0,0,1,5.444,10.149l-5.233,17.284C168.384,305.5,163.469,302.968,158.5,300.431Z" transform="translate(-148.214 -280.619)"/></g><g transform="translate(86.781 125.388)"><path class="g" d="M327.841,343.239h0a8.079,8.079,0,0,1-10.149-5.444l-14.113-46.567a8.079,8.079,0,0,1,5.444-10.149h0a8.079,8.079,0,0,1,10.149,5.444l14.113,46.567A8.123,8.123,0,0,1,327.841,343.239Z" transform="translate(-303.219 -280.666)"/><path class="h" d="M332.636,337.008l-14.113-46.567c-1.321-5.021-5.867-7.453-10.149-6.184a8.177,8.177,0,0,0-5.074,4.44,8.158,8.158,0,0,1,15.963-2.273l14.113,46.567a8.133,8.133,0,0,1-.37,5.709C333.006,337.906,332.847,337.114,332.636,337.008Z" transform="translate(-303.257 -280.619)"/><path class="j" d="M323.4,300.431l-4.229-14.007a8.123,8.123,0,0,0-10.149-5.444h0a8.123,8.123,0,0,0-5.444,10.149l5.233,17.284C313.516,305.5,318.485,302.968,323.4,300.431Z" transform="translate(-303.219 -280.619)"/></g><g transform="translate(86.242 94.456)"><path class="k" d="M325.986,262.536,311.714,222.1,302.2,263.117v17.919C309.97,274.693,318,268.667,325.986,262.536Z" transform="translate(-302.2 -222.1)"/><path class="l" d="M313.9,263.457l2.96-12.157,5.656,18.976-6.237,5.92Z" transform="translate(-307.716 -235.866)"/><path class="l" d="M319.2,297.979l1.057,5.5,7.241-5.92-1.744-5.656Z" transform="translate(-310.214 -255.006)"/><path class="l" d="M333.151,262.536,318.88,222.1l-1.48,6.29L330.244,264.7C331.249,264.016,332.2,263.276,333.151,262.536Z" transform="translate(-309.366 -222.1)"/><path class="m" d="M334.142,262.536,319.87,222.1l-.37,1.269,13.9,39.749A3.993,3.993,0,0,0,334.142,262.536Z" transform="translate(-310.356 -222.1)"/></g><g transform="translate(18.797 88.8)"><path class="n" d="M254.943,463.229H174.6L179.093,422H250.5Z" transform="translate(-174.6 -310.683)"/><path class="o" d="M225.286,211.981l.053-.581h-20.72v.581l-26.693,5.127,9.461,41.017L175.6,341.006h78.7L243.046,258.39l8.986-41.281Z" transform="translate(-175.071 -211.4)"/><path class="p" d="M188.693,345.75l11.893-58.619-5.709-5.92,5.867.951-2.273-20.456L187.9,226.61l31.239-4.81,34.516,3.489L244.4,258.8l-2.537,20.3,5.233-.9-5.391,6.4,13.056,61.949Z" transform="translate(-180.87 -216.303)"/><path class="q" d="M181.114,404.7,179,419.659h75.216L252.154,404.7Z" transform="translate(-176.674 -302.527)"/><circle class="k" cx="5.709" cy="5.709" r="5.709" transform="translate(54.716 34.838) rotate(-80.752)"/><path class="r" d="M227.36,211.981l.053-.581h-20.72v.581L180,217.109l.846,6.237,29.759-5.867,1.9-4.017,4.334.476v.053l.211-.053.159.053v-.053l4.334-.476,1.956,4.017,29.23,5.867,1.374-6.237Z" transform="translate(-177.146 -211.4)"/><path class="s" d="M227.36,211.981l.053-.581h-20.72v.581L180,217.109l.846,6.237.211-.053-.634-4.916,26.693-5.127v-.581H226.99l-.053.581,26.852,5.18.317-1.321Z" transform="translate(-177.146 -211.4)"/></g><g transform="translate(21.717 151.489)"><path class="t" d="M180.165,330.053c.053,0,.053-.053,0-.053s-.053.053,0,.053Z" transform="translate(-180.125 -330)"/></g><g transform="translate(47.287 66.6)"><path class="g" d="M250.753,192.182,251.81,169.4H228.5l1.057,22.781L240.181,204.6Z" transform="translate(-228.5 -169.4)"/><g class="u"><path class="v" d="M229.716,169.4H228.5l1.057,22.781,1,1.163Z" transform="translate(-228.5 -169.4)"/><path class="v" d="M269.546,169.4l-.846,23.944,1-1.163,1.057-22.781Z" transform="translate(-247.451 -169.4)"/></g><path class="w" d="M240.287,185.839a17.867,17.867,0,0,1-7.241-1.216,18.951,18.951,0,0,1-4.017-2.326l-.529-12.9h23.31l-.476,12.263C248.85,184.887,244.093,185.733,240.287,185.839Z" transform="translate(-228.5 -169.4)"/></g><g transform="translate(96.363 170.935)"><path class="g" d="M342.2,377.621a10.467,10.467,0,0,1-11.153,8.827c-5.92-.317-10.36-5.233-9.62-10.836s6.237-9.461,12.051-8.616A9.756,9.756,0,0,1,342.2,377.621Z" transform="translate(-321.347 -366.832)"/><path class="h" d="M335.149,366.9A10.844,10.844,0,0,0,325,371.024a11.005,11.005,0,0,1,8.88-2.7,9.759,9.759,0,0,1,8.721,10.677,10.02,10.02,0,0,1-1.9,4.651,9.52,9.52,0,0,0,3.171-6.026A9.778,9.778,0,0,0,335.149,366.9Z" transform="translate(-323.069 -366.789)"/></g><g transform="translate(0.123 170.935)"><path class="g" d="M139.339,377.621a10.467,10.467,0,0,0,11.153,8.827c5.92-.317,10.36-5.233,9.62-10.836s-6.237-9.461-12.051-8.616A9.718,9.718,0,0,0,139.339,377.621Z" transform="translate(-139.271 -366.832)"/><path class="h" d="M148.061,366.9a10.844,10.844,0,0,1,10.149,4.123,11.005,11.005,0,0,0-8.88-2.7,9.759,9.759,0,0,0-8.721,10.677,10.019,10.019,0,0,0,1.9,4.651,9.521,9.521,0,0,1-3.171-6.026A9.816,9.816,0,0,1,148.061,366.9Z" transform="translate(-139.271 -366.789)"/></g><g transform="translate(7.326 94.456)"><path class="k" d="M152.9,262.536,167.171,222.1l9.514,41.017v17.919C168.916,274.693,160.881,268.667,152.9,262.536Z" transform="translate(-152.9 -222.1)"/><path class="l" d="M175.389,248.7,168.2,269l6.924,4.334,3.806-7.559Z" transform="translate(-160.113 -234.64)"/><path class="l" d="M152.9,262.536,167.171,222.1l1.48,6.29L155.807,264.7C154.856,264.016,153.851,263.276,152.9,262.536Z" transform="translate(-152.9 -222.1)"/><path class="m" d="M152.9,262.536,167.171,222.1l.37,1.269-13.9,39.749C153.429,262.959,153.164,262.747,152.9,262.536Z" transform="translate(-152.9 -222.1)"/></g><g transform="translate(39.147 81.77)"><g transform="translate(19.451 19.927)"><path class="k" d="M250.587,250.864V235.8l-.317.317-.37-.317v15.064Z" transform="translate(-249.9 -235.8)"/><path class="k" d="M255.6,244.951a.951.951,0,1,1-.951-.951A.947.947,0,0,1,255.6,244.951Z" transform="translate(-251.691 -239.666)"/><path class="k" d="M255.6,256.051a.951.951,0,1,1-.951-.951A.947.947,0,0,1,255.6,256.051Z" transform="translate(-251.691 -244.899)"/></g><g transform="translate(19.769)"><path class="o" d="M263.979,211.5l3.383,16.967-6.237-5.444L250.5,224.661Z" transform="translate(-250.5 -204.417)"/><path class="k" d="M250.5,218.344l10.624-12.527.317-7.717,5.55,1.9,3.383,21.037-9.99-8.3Z" transform="translate(-250.5 -198.1)"/><path class="l" d="M265.82,199.9l3.7,1.321L259.9,212.53l9.25-4.334,5.656,12.844L271.423,200l-5.55-1.9Z" transform="translate(-254.931 -198.1)"/></g><path class="o" d="M221.983,211.5,218.6,228.467l6.237-5.444,10.571,1.639Z" transform="translate(-215.693 -204.417)"/><path class="k" d="M232.921,218.344,222.35,205.817l-.37-7.717-5.55,1.9L213.1,221.04l9.99-8.3Z" transform="translate(-213.1 -198.1)"/><path class="l" d="M222.033,199.9l-3.7,1.321,9.673,11.311-9.25-4.334L213.1,221.04,216.43,200l5.55-1.9Z" transform="translate(-213.1 -198.1)"/></g><g transform="translate(20.277 139.015)"><rect class="x" width="76.326" height="55.87"/><path class="y" d="M197.539,361.456a6.879,6.879,0,0,0-.793-.529c-.053-.053-.106-.053-.159-.106a6.312,6.312,0,0,0-.846-.423.194.194,0,0,0-.159-.053c-.317-.106-.581-.264-.9-.37h-.053c-.317-.106-.634-.211-1-.317-.053,0-.159-.053-.211-.053-.317-.106-.634-.159-1-.264-.106,0-.159-.053-.264-.053a5.529,5.529,0,0,1-.9-.211,7.073,7.073,0,0,0,3.119-1.321c.846-.634,1.321-1.269,1.216-1.9a.194.194,0,0,0,.053-.159,2.465,2.465,0,0,0-.634-1.057c-2.379-2.273-3.489-3.119-7.717-3.066H184.43c.476-3.277.211-6.607-1.639-9.356a2.3,2.3,0,0,0-.317-.37c-.159-.159-.37-.317-.529-.476a1.653,1.653,0,0,0-.529-.264c-.106-.053-.211-.053-.317-.106v37.159a.4.4,0,0,1,.264.053l.423.106a3.492,3.492,0,0,0,.74.053,60.675,60.675,0,0,0,8.3.476c3.013-.211,4.176-3.066,2.061-4.176-.9-.476-1.85-.9-2.8-1.321a12.676,12.676,0,0,0,4.969-1.11,8.764,8.764,0,0,0,1.85-.951,1.865,1.865,0,0,0,.476-3.013c-1.057-1.269-2.96-1.9-5.074-2.273a17.67,17.67,0,0,0,4.81-1.533C198.649,363.517,198.807,362.354,197.539,361.456Z" transform="translate(-179.144 -322.711)"/><path class="y" d="M287.411,361.456a5.019,5.019,0,0,1,.9-.529c.053-.053.106-.053.159-.106a6.885,6.885,0,0,1,.9-.423c.053-.053.106-.053.211-.053.317-.106.634-.264.951-.37h.053c.37-.106.687-.211,1.057-.317.106,0,.159-.053.264-.053.37-.106.687-.159,1.057-.264.106,0,.159-.053.264-.053a6.143,6.143,0,0,0,.951-.211,7.622,7.622,0,0,1-3.33-1.321c-.9-.634-1.427-1.269-1.321-1.9a.194.194,0,0,1-.053-.159,2.156,2.156,0,0,1,.687-1.057c2.537-2.273,3.806-3.119,8.351-3.066h3.066c-.529-3.277-.211-6.607,1.8-9.356a2.3,2.3,0,0,1,.317-.37,5.622,5.622,0,0,1,.581-.476,1.954,1.954,0,0,1,.581-.264c.106-.053.211-.053.317-.106v37.159a.67.67,0,0,0-.317.053l-.476.106a4,4,0,0,1-.793.053,70.821,70.821,0,0,1-8.933.476c-3.277-.211-4.493-3.066-2.22-4.176,1-.476,2.009-.9,3.066-1.321a14.349,14.349,0,0,1-5.339-1.11,9.953,9.953,0,0,1-2.009-.951c-1.374-.9-1.427-2.009-.529-3.013,1.11-1.269,3.171-1.9,5.444-2.273a20.332,20.332,0,0,1-5.18-1.533C286.248,363.517,286.089,362.354,287.411,361.456Z" transform="translate(-228.845 -322.711)"/><path class="y" d="M249.17,323l1.956,16.756,32.56,3.541-34.886.053Z" transform="translate(-211.06 -314.226)"/><path class="y" d="M179.2,350.4l36.789,5.867-36.1.106Z" transform="translate(-178.249 -327.143)"/><path class="y" d="M183.161,356.086,177.4,306.4v55.87h76.326v-6.184Z" transform="translate(-177.4 -306.4)"/><rect class="y" width="76.326" height="2.643" transform="translate(0 5.973)"/><path class="z" d="M255.5,309.936h0a1.647,1.647,0,0,0,1.639,1.639h30.393a1.647,1.647,0,0,0,1.639-1.639h0a1.647,1.647,0,0,0-1.639-1.639H257.139A1.582,1.582,0,0,0,255.5,309.936Z" transform="translate(-214.218 -307.293)"/><path class="z" d="M180.2,309.936h0a1.647,1.647,0,0,0,1.639,1.639h30.393a1.647,1.647,0,0,0,1.639-1.639h0a1.647,1.647,0,0,0-1.639-1.639H181.839A1.582,1.582,0,0,0,180.2,309.936Z" transform="translate(-178.72 -307.293)"/><path class="z" d="M255.5,326.739v2.326a1.647,1.647,0,0,0,1.639,1.639h30.393a1.647,1.647,0,0,0,1.639-1.639v-2.326a1.647,1.647,0,0,0-1.639-1.639H257.139A1.647,1.647,0,0,0,255.5,326.739Z" transform="translate(-214.218 -315.216)"/><path class="z" d="M206.9,326.739v2.326a1.647,1.647,0,0,0,1.639,1.639h16.333a1.647,1.647,0,0,0,1.639-1.639v-2.326a1.647,1.647,0,0,0-1.639-1.639H208.539A1.647,1.647,0,0,0,206.9,326.739Z" transform="translate(-191.307 -315.216)"/><path class="z" d="M255.5,366.539v5.656a1.647,1.647,0,0,0,1.639,1.639h30.393a1.647,1.647,0,0,0,1.639-1.639v-5.656a1.647,1.647,0,0,0-1.639-1.639H257.139A1.647,1.647,0,0,0,255.5,366.539Z" transform="translate(-214.218 -333.979)"/><path class="z" d="M227.936,364.9h-12.9a1.647,1.647,0,0,0-1.639,1.639v5.656a1.647,1.647,0,0,0,1.639,1.639h12.9a1.647,1.647,0,0,0,1.639-1.639v-5.656A1.647,1.647,0,0,0,227.936,364.9Z" transform="translate(-194.371 -333.979)"/><line class="aa" y2="56.029" transform="translate(37.74 0.317)"/><line class="aa" x2="76.326" transform="translate(0 29.336)"/><line class="aa" x1="76.326" transform="translate(0 49.633)"/><line class="aa" x1="76.326" transform="translate(0 8.986)"/><g transform="translate(50.796 11.311)"><path class="y" d="M290.837,339.284H275.3a1.782,1.782,0,0,1-1.8-1.8V331.2a1.782,1.782,0,0,1,1.8-1.8h15.54a1.782,1.782,0,0,1,1.8,1.8v6.29A1.816,1.816,0,0,1,290.837,339.284Z" transform="translate(-273.5 -328.554)"/><path class="s" d="M290.837,337.684H275.3a1.782,1.782,0,0,1-1.8-1.8V329.6a1.782,1.782,0,0,1,1.8-1.8h15.54a1.782,1.782,0,0,1,1.8,1.8v6.237A1.828,1.828,0,0,1,290.837,337.684Z" transform="translate(-273.5 -327.8)"/><rect class="ab" width="5.18" height="6.819" transform="translate(1.797 1.427)"/><rect class="ab" width="9.303" height="1.004" transform="translate(8.14 1.427)"/><rect class="ab" width="9.303" height="1.004" transform="translate(8.14 3.277)"/><rect class="ab" width="9.303" height="1.004" transform="translate(8.14 5.18)"/><rect class="ab" width="9.303" height="1.004" transform="translate(8.14 7.083)"/></g><path class="ac" d="M246.333,323.367h.053l.74-.793.74.793h.159l.634-.846.687.846.581-.74V306.4H244.8v16.967l.846-.846Z" transform="translate(-209.174 -306.4)"/></g><g transform="translate(79.763 155.884)"><g transform="translate(13.755)"><path class="g" d="M317.833,339.629c-2.907,4.334-2.009,10.2-.106,14.747,1.8,4.387,9.091,1.639,7.77-2.907-1.057-3.594-1.216-7.453-2.379-10.941a2.944,2.944,0,0,0-5.286-.9Z" transform="translate(-315.965 -338.316)"/><path class="ad" d="M327.117,351.539c-1.057-3.594-1.216-7.453-2.379-10.941-.793-2.326-3.859-3.171-5.339-.951h0a3.183,3.183,0,0,1,3.489,2.167c1.163,3.489,1.321,7.347,2.379,10.941a3.542,3.542,0,0,1-.793,3.489A3.831,3.831,0,0,0,327.117,351.539Z" transform="translate(-317.584 -338.333)"/></g><g transform="translate(0.49 23.778)"><path class="ad" d="M310.019,383.3c-3.224.264-6.4.476-9.567.793-3.436.317-7.347.687-9.039,2.749a1.893,1.893,0,0,0,.476,3.013c2.8,2.009,6.766,1.8,10.624,1.691,2.379-.053,4.757-.159,7.136-.264Z" transform="translate(-290.868 -383.3)"/><g transform="translate(0.859 0.133)"><path class="g" d="M293.554,390.343c2.8,2.009,6.766,1.8,10.624,1.691,4.229-.106,8.457-.317,12.739-.529,3.489-.159,5.55-2.8,4.757-4.757-.9-2.273-4.387-3.383-7.876-3.171-3.911.264-7.77.581-11.681.951-3.436.317-7.347.687-9.039,2.749a1.889,1.889,0,0,0,.476,3.066Z" transform="translate(-292.494 -383.552)"/></g></g><g transform="translate(0 17.093)"><path class="g" d="M291.241,377.074c5.656,2.907,13.849,1.85,20.509,1.586,8.88-.317,7.664-8.51-1.321-7.981-6.607.37-15.064.159-19.663,3.489-1.216.951-1.11,2.114.476,2.907Z" transform="translate(-289.941 -370.654)"/><path class="ad" d="M302.387,371.6c-4.334.317-8.563,1.057-11.311,3.066a2.018,2.018,0,0,0-.476.476l8.351-.37C300.167,373.714,301.277,372.657,302.387,371.6Z" transform="translate(-290.252 -371.1)"/></g><g transform="translate(2.804 10.722)"><path class="g" d="M296.49,364.731c3.171,2.484,7.506,1.163,12.051,1.269,7.981.211,8.193-7.453.317-7.4-5.286,0-9.99,0-12.95,3.066-1.163,1.216-.687,2.061.581,3.066Z" transform="translate(-295.245 -358.6)"/></g><g transform="translate(4.413 27.876)"><path class="g" d="M301.414,401.068c3.7.211,16.544-1.11,19.61-2.643,3.753-1.8,1.321-8.563-3.489-7.189-6.29,1.744-12.58,2.7-18.13,5.656-2.167,1.11-1,3.964,2.009,4.176Z" transform="translate(-298.29 -391.054)"/></g><g transform="translate(2.766 10.614)"><path class="g" d="M330.452,365.689l-.264,11.206a7.12,7.12,0,0,1-4.757,6.713l-9.039,1.639a3.517,3.517,0,0,1-4.123-3.277L311,358.5l12.369.106A7.017,7.017,0,0,1,330.452,365.689Z" transform="translate(-302.635 -358.445)"/><path class="ad" d="M337.586,383.543c-.476-8.3-1-16.544-1.586-24.843a7.054,7.054,0,0,1,6.237,7.083l-.264,11.206A7.087,7.087,0,0,1,337.586,383.543Z" transform="translate(-314.421 -358.539)"/><path class="ad" d="M322.779,363.9a7.138,7.138,0,0,0-6.871-5.391l-12.157-.106c-4.387-.053-5.5.793-7.929,3.066a2.465,2.465,0,0,0-.634,1.057c-.053.159.053.264.211.264l13.954-.74h4.81Z" transform="translate(-295.174 -358.396)"/></g></g><g transform="translate(6.946 155.884)"><g transform="translate(7.205)"><g transform="translate(0.047)"><path class="g" d="M173.722,339.629c2.907,4.334,2.009,10.2.106,14.747-1.8,4.387-9.091,1.639-7.77-2.907,1.057-3.594,1.216-7.453,2.379-10.941a2.944,2.944,0,0,1,5.286-.9Z" transform="translate(-165.899 -338.316)"/></g><path class="ad" d="M165.964,351.539c1.057-3.594,1.216-7.453,2.379-10.941.793-2.326,3.859-3.171,5.339-.951h0a3.183,3.183,0,0,0-3.489,2.167c-1.163,3.489-1.321,7.347-2.379,10.941a3.542,3.542,0,0,0,.793,3.489A3.874,3.874,0,0,1,165.964,351.539Z" transform="translate(-165.811 -338.333)"/></g><g transform="translate(0 23.778)"><g transform="translate(11.058)"><path class="ad" d="M173.1,383.3c3.224.264,6.4.476,9.567.793,3.436.317,7.347.687,9.039,2.749a1.893,1.893,0,0,1-.476,3.013c-2.8,2.009-6.766,1.8-10.624,1.691-2.379-.053-4.757-.159-7.136-.264Z" transform="translate(-173.1 -383.3)"/></g><g transform="translate(0 0.133)"><path class="g" d="M180.469,390.343c-2.8,2.009-6.766,1.8-10.624,1.691-4.229-.106-8.457-.317-12.739-.529-3.489-.159-5.55-2.8-4.757-4.757.9-2.273,4.387-3.383,7.876-3.171,3.911.264,7.77.581,11.681.951,3.436.317,7.347.687,9.039,2.749a1.916,1.916,0,0,1-.476,3.066Z" transform="translate(-152.18 -383.552)"/></g></g><g transform="translate(2.818 17.093)"><path class="g" d="M184.093,377.074c-5.656,2.907-13.849,1.85-20.509,1.586-8.88-.317-7.664-8.51,1.321-7.981,6.607.37,15.064.159,19.663,3.489,1.216.951,1.057,2.114-.476,2.907Z" transform="translate(-157.511 -370.654)"/><path class="ad" d="M187.2,371.6c4.334.317,8.563,1.057,11.311,3.066a2.018,2.018,0,0,1,.476.476l-8.351-.37C189.473,373.714,188.31,372.657,187.2,371.6Z" transform="translate(-171.507 -371.1)"/></g><g transform="translate(8.44 10.722)"><path class="g" d="M186.305,364.731c-3.171,2.484-7.506,1.163-12.051,1.269-7.981.211-8.193-7.453-.317-7.4,5.286,0,9.99,0,12.95,3.066,1.216,1.216.74,2.061-.581,3.066Z" transform="translate(-168.147 -358.6)"/></g><g transform="translate(1.719 27.876)"><path class="g" d="M176.875,401.068c-3.7.211-16.544-1.11-19.61-2.643-3.753-1.8-1.321-8.563,3.489-7.189,6.29,1.744,12.58,2.7,18.13,5.656,2.167,1.11,1,3.964-2.009,4.176Z" transform="translate(-155.433 -391.054)"/></g><g transform="translate(0.116 10.614)"><path class="g" d="M152.4,365.689l.264,11.206a7.12,7.12,0,0,0,4.757,6.713l9.039,1.639a3.517,3.517,0,0,0,4.123-3.277l1.269-23.469-12.369.106A6.984,6.984,0,0,0,152.4,365.689Z" transform="translate(-152.399 -358.445)"/><path class="ad" d="M157.051,383.543c.476-8.3,1-16.544,1.586-24.843a7.054,7.054,0,0,0-6.237,7.083l.264,11.206A7.008,7.008,0,0,0,157.051,383.543Z" transform="translate(-152.399 -358.539)"/><path class="ad" d="M152.8,363.9a7.138,7.138,0,0,1,6.871-5.391l12.157-.106c4.387-.053,5.5.793,7.929,3.066a2.465,2.465,0,0,1,.634,1.057c.053.159-.053.264-.211.264l-13.954-.74h-4.81Z" transform="translate(-152.588 -358.396)"/></g></g><g transform="translate(26.09)"><g transform="translate(0 41.069)"><path class="ae" d="M290.444,138.806h0a5.448,5.448,0,0,1-5.444-5.5l.053-6.766a5.448,5.448,0,0,1,5.5-5.444h0a5.448,5.448,0,0,1,5.444,5.5l-.053,6.766A5.415,5.415,0,0,1,290.444,138.806Z" transform="translate(-233.938 -121.098)"/><path class="ae" d="M193.844,138.806h0a5.448,5.448,0,0,1-5.444-5.5l.053-6.766a5.448,5.448,0,0,1,5.5-5.444h0a5.448,5.448,0,0,1,5.444,5.5l-.053,6.766A5.415,5.415,0,0,1,193.844,138.806Z" transform="translate(-188.398 -121.098)"/><path class="h" d="M189.933,134.414l.053-6.766a5.448,5.448,0,0,1,5.5-5.444,5.233,5.233,0,0,1,2.22.476,5.5,5.5,0,0,0-9.25,3.964l-.053,6.766a5.409,5.409,0,0,0,3.277,5.021A5.349,5.349,0,0,1,189.933,134.414Z" transform="translate(-188.399 -121.146)"/></g><g transform="translate(5.657 4.546)"><path class="g" d="M225.094,127.382h0A25.8,25.8,0,0,1,199.3,101.587V78.594A25.8,25.8,0,0,1,225.094,52.8h0a25.8,25.8,0,0,1,25.794,25.794v22.993A25.728,25.728,0,0,1,225.094,127.382Z" transform="translate(-199.194 -52.377)"/><path class="h" d="M226.046,132.747h0a25.8,25.8,0,0,1-25.794-25.794V83.96a25.794,25.794,0,0,1,7.083-17.76A25.691,25.691,0,0,0,199.3,84.911V107.9A25.8,25.8,0,0,0,225.094,133.7h0a25.806,25.806,0,0,0,18.711-8.034A25.6,25.6,0,0,1,226.046,132.747Z" transform="translate(-199.194 -58.694)"/><path class="af" d="M226.533,52,225,52.106,223.467,52C209.143,52,199.1,64.527,199.1,78.376v17.6a1.762,1.762,0,0,0,1.8-1.691V80.173c4.6.159,3.647-9.091,8.087-10.149,4.6-1.163,10.466-.687,15.963-.846,5.5.159,11.417-.317,15.963.846,4.44,1.11,3.489,10.307,8.087,10.149V94.286a1.762,1.762,0,0,0,1.8,1.691v-17.6C250.9,64.527,240.857,52,226.533,52Z" transform="translate(-199.1 -52)"/></g><g transform="translate(11.693 34.939)"><g transform="translate(16.11 6.711)"><path class="ag" d="M241,123l.264,16.6s2.273,2.326,7.294-.053" transform="translate(-241 -122.575)"/><path class="v" d="M243.918,139.165h0a1.962,1.962,0,0,0,1.956-2.009l-.211-13a1.962,1.962,0,0,0-2.009-1.956h0a1.962,1.962,0,0,0-1.956,2.009l.211,13A2,2,0,0,0,243.918,139.165Z" transform="translate(-241.328 -122.196)"/></g><g transform="translate(0 0)"><g transform="translate(26.947)"><ellipse class="ae" cx="6.026" cy="3.964" rx="6.026" ry="3.964" transform="translate(0.422 16.861)"/><path class="af" d="M275.085,111.3a26.986,26.986,0,0,0-3.119-1.057c-1.11-.211-2.22-.423-3.33-.529s-2.167-.211-3.277-.211c-.529,0-1.11,0-1.639.053-.264,0-.529.053-.74.053a3.509,3.509,0,0,0-1.057.317.836.836,0,0,0,.211,1.533,4.79,4.79,0,0,0,1.744.106c.529,0,1-.053,1.533-.053,1.057-.053,2.114,0,3.224,0a31.014,31.014,0,0,1,3.119.264c1.057.106,2.114.159,3.171.264.476.106.687-.529.159-.74Z" transform="translate(-261.502 -109.5)"/><circle class="af" cx="3.383" cy="3.383" r="3.383" transform="translate(3.54 6.554)"/><circle class="s" cx="0.951" cy="0.951" r="0.951" transform="translate(7.346 7.717)"/></g><g transform="translate(0 0.053)"><ellipse class="ae" cx="6.026" cy="3.964" rx="6.026" ry="3.964" transform="translate(1.416 16.809)"/><path class="af" d="M211.038,112.137c1-.159,2.061-.159,3.119-.264s2.114-.211,3.171-.264a30.682,30.682,0,0,1,3.119,0c.529,0,1.057.053,1.586.053a6.461,6.461,0,0,0,1.744-.106.864.864,0,0,0,.211-1.533,2.461,2.461,0,0,0-1.057-.317,3.745,3.745,0,0,0-.74-.053c-.529-.053-1.11-.053-1.639-.053a22.746,22.746,0,0,0-3.277.211c-1.11.159-2.22.317-3.33.529a18.083,18.083,0,0,0-3.119,1.057c-.529.159-.317.793.211.74Z" transform="translate(-210.521 -109.6)"/><circle class="af" cx="3.383" cy="3.383" r="3.383" transform="translate(3.953 6.501)"/><circle class="s" cx="0.951" cy="0.951" r="0.951" transform="translate(7.495 7.664)"/></g></g><g transform="translate(11.723 31.027)"><path class="ah" d="M232.7,168.2a27.734,27.734,0,0,0,15.8.211" transform="translate(-232.7 -168.2)"/><path class="v" d="M247.081,175.666h-2.749a1.534,1.534,0,0,1-1.533-1.533h0a1.534,1.534,0,0,1,1.533-1.533h2.749a1.534,1.534,0,0,1,1.533,1.533h0A1.534,1.534,0,0,1,247.081,175.666Z" transform="translate(-237.461 -170.274)"/></g></g><path class="ai" d="M199.3,101c.053.317.159.634.211.951l9.461,38.269h32.243l9.461-38.269c.053-.317.159-.634.211-.951H199.3Z" transform="translate(-193.538 -70.554)"/><g transform="translate(5.498)"><path class="aj" d="M247.894,45.2a1.8,1.8,0,1,1-1.8-1.8A1.852,1.852,0,0,1,247.894,45.2Z" transform="translate(-220.25 -43.4)"/><path class="k" d="M250.489,75.777V72.394A25.8,25.8,0,0,0,224.694,46.6h0A25.8,25.8,0,0,0,198.9,72.394v3.383Z" transform="translate(-198.847 -44.909)"/><path class="l" d="M261.657,57.961A27.358,27.358,0,0,0,249.5,48.5l.211,11.311C249.659,59.864,259.966,58.226,261.657,57.961Z" transform="translate(-222.701 -45.804)"/><path class="l" d="M267.1,57.709c.846-.264,1.744-.476,2.643-.687C263.933,50.943,255,48.3,255,48.3A33.379,33.379,0,0,1,267.1,57.709Z" transform="translate(-225.294 -45.71)"/><path class="l" d="M285.5,74.3a7.806,7.806,0,0,1,1.11.053,24.19,24.19,0,0,0-2.537-4.916L283.6,68.8a24.72,24.72,0,0,1-2.8.9,22.062,22.062,0,0,1,2.167,4.651C283.866,74.35,284.659,74.3,285.5,74.3Z" transform="translate(-237.457 -55.374)"/><path class="ak" d="M237.744,68.027a38.929,38.929,0,0,1-17.6.687c-4.387-.793-10.1-2.379-11.364-7.294a1.9,1.9,0,0,1-.106-.581,7.35,7.35,0,0,1,1.216-5.339A25.711,25.711,0,0,0,199,76.59v3.383h51.642V76.59a25.567,25.567,0,0,0-3.647-13.214c.159.211-4.07,2.59-4.44,2.8A33.374,33.374,0,0,1,237.744,68.027Z" transform="translate(-198.894 -49.104)"/><path class="al" d="M249.123,75.306V73.561A13.163,13.163,0,0,0,235.962,60.4h0A13.163,13.163,0,0,0,222.8,73.561v1.744Z" transform="translate(-210.114 -51.414)"/><g transform="translate(0 17.813)"><path class="am" d="M249.49,97.82c-5.656-5.55-17.073-10.994-25-10.73s-18.764,4.863-24,10.836l-1.691-7.77A31.748,31.748,0,0,1,224.911,77.1c17.813,0,25.477,13.056,25.477,13.056Z" transform="translate(-198.8 -77.1)"/></g><g transform="translate(38.533 21.513)"><path class="an" d="M280.21,88.117a28.19,28.19,0,0,0-5.761-4.017c-.846,3.119-1.8,6.184-2.749,9.25,1.427.634,2.854,1.321,4.229,2.061C277.409,92.98,278.941,90.654,280.21,88.117Z" transform="translate(-271.7 -84.1)"/></g><g transform="translate(26.746 17.813)"><path class="an" d="M261.663,79.69A32.1,32.1,0,0,0,249.4,77.1v9.99a30.493,30.493,0,0,1,9.831,2.114C260.077,86.086,260.711,82.809,261.663,79.69Z" transform="translate(-249.4 -77.1)"/></g><g transform="translate(1.226 24.29)"><path class="aj" d="M207.029,105.288A26.288,26.288,0,0,1,225,96.408c7.453-.37,14.271,3.859,19.451,8.88,3.277,3.119,8.246-1.8,4.969-4.969-6.449-6.237-15.17-11.364-24.42-10.941a33.22,33.22,0,0,0-22.94,10.941c-3.013,3.33,1.9,8.3,4.969,4.969Z" transform="translate(-201.119 -89.354)"/></g></g></g></g></g></g></g></svg>