<svg xmlns="http://www.w3.org/2000/svg" width="80" height="80" viewBox="0 0 80 80"><defs><style>.a{fill:#d72018;}</style></defs><g transform="translate(-5013 -1940)"><g transform="translate(5013 1940)"><path class="a" d="M278.5,195.769a5.83,5.83,0,0,0,5.823,5.823h6.845a5.83,5.83,0,0,0,5.823-5.823v-6.845a5.83,5.83,0,0,0-5.823-5.823h-6.845a5.83,5.83,0,0,0-5.823,5.823Zm5.823-6.845h6.845v6.845h-6.845Z" transform="translate(-234.259 -157.122)"/><circle class="a" cx="2.912" cy="2.912" r="2.912" transform="translate(44.295 57.08)"/><circle class="a" cx="3.143" cy="3.143" r="3.143" transform="translate(16.406 56.848)"/><circle class="a" cx="3.143" cy="3.143" r="3.143" transform="translate(16.406 29.67)"/><circle class="a" cx="3.143" cy="3.143" r="3.143" transform="translate(16.406 43.259)"/><circle class="a" cx="3.143" cy="3.143" r="3.143" transform="translate(29.995 43.259)"/><circle class="a" cx="3.143" cy="3.143" r="3.143" transform="translate(29.995 29.67)"/><circle class="a" cx="3.143" cy="3.143" r="3.143" transform="translate(29.995 56.848)"/><g transform="translate(44.163 44.212)"><path class="a" d="M305.214,315.8a.839.839,0,0,0-1.157,0L288.612,331.26a.815.815,0,0,0-.231.713.829.829,0,0,0,.443.6l1.273.636v2.14l-3.9,1.118-3.914-3.934,1.118-3.9h2.14l.636,1.273a.829.829,0,0,0,.6.444c.039,0,.1.019.135.019a.817.817,0,0,0,.578-.231l15.445-15.465a.839.839,0,0,0,0-1.157l-2.989-2.989a.816.816,0,0,0-.578-.231h0a.909.909,0,0,0-.578.231l-16.564,16.737a.019.019,0,0,1-.019.019.922.922,0,0,0-.193.328l-1.408,4.936-1.832,6.44a.791.791,0,0,0,.212.791.816.816,0,0,0,.578.231.968.968,0,0,0,.231-.039l6.44-1.832,4.936-1.408c.019,0,.019-.019.039-.019a.311.311,0,0,0,.135-.077.585.585,0,0,0,.135-.1c.019,0,.019-.019.039-.019l16.718-16.583a.839.839,0,0,0,0-1.157Z" transform="translate(-278.748 -304.265)"/><path class="a" d="M405.969,284.8l-4.878-4.878a3.307,3.307,0,0,0-4.589,0l-2.97,3.008a.839.839,0,0,0,0,1.157l8.291,8.291a.816.816,0,0,0,.578.231.85.85,0,0,0,.578-.231l2.989-2.97a3.207,3.207,0,0,0,.945-2.295A3.173,3.173,0,0,0,405.969,284.8Z" transform="translate(-371.212 -279)"/></g><path class="a" d="M422.7,256" transform="translate(-350.779 -216)"/><path class="a" d="M114.9,53.651h-4.065V50.526a3.126,3.126,0,1,0-6.251,0v3.126H90.372V50.526a3.126,3.126,0,1,0-6.251,0v3.126H70.065V50.526a3.126,3.126,0,0,0-6.251,0v3.126H59.9a12.517,12.517,0,0,0-12.5,12.5V114.9a12.517,12.517,0,0,0,12.5,12.5H85.981v-6.251H59.9a6.252,6.252,0,0,1-6.251-6.251V66.154A6.252,6.252,0,0,1,59.9,59.9h3.912v3.126a3.126,3.126,0,0,0,6.251,0V59.9H84.121v3.126a3.126,3.126,0,1,0,6.251,0V59.9h14.209v3.126a3.126,3.126,0,1,0,6.251,0V59.9H114.9a6.252,6.252,0,0,1,6.251,6.251V87.918H127.4V66.154A12.529,12.529,0,0,0,114.9,53.651Z" transform="translate(-47.4 -47.4)"/></g></g></svg>