<svg xmlns="http://www.w3.org/2000/svg" width="60" height="59.999" viewBox="0 0 60 59.999"><defs><style>.a{fill:#fff;}</style></defs><g transform="translate(0 -0.003)"><g transform="translate(21.27 6.697)"><path class="a" d="M208.061,59.922l-4.875-1.828L175.9,68.606l9.114,3.418,27.658-10.371Z" transform="translate(-175.904 -58.094)"/></g><g transform="translate(1.728 0.003)"><g transform="translate(0 0)"><path class="a" d="M43.262.112a1.75,1.75,0,0,0-1.215,0L15,10.255,24.445,13.8,51.454,3.184Z" transform="translate(-14.998 -0.003)"/></g></g><g transform="translate(32.113 14.3)"><path class="a" d="M270,125.769V161.1l26.766-9.951a1.73,1.73,0,0,0,1.121-1.619V115.4Z" transform="translate(-270 -115.398)"/></g><g transform="translate(0 14.299)"><path class="a" d="M20.742,123.172v8.309a1.73,1.73,0,0,1-2.5,1.546l-6.914-3.457a1.729,1.729,0,0,1-.955-1.546v-8.741L0,115.394V146.07c0,.042.03.075.033.117a1.792,1.792,0,0,0,.922,1.43l9.416,4.708,17.285,8.643v-35.2Zm0,30.472-10.371-5.186v-5.846a1.729,1.729,0,0,1,2.5-1.546l6.914,3.457a1.729,1.729,0,0,1,.955,1.546Z" transform="translate(0 -115.394)"/></g></g></svg>