<svg xmlns="http://www.w3.org/2000/svg" width="75.858" height="78.94" viewBox="0 0 75.858 78.94"><defs><style>.a{fill:#d3d4d6;}</style></defs><g transform="translate(-1297 -2570)"><g transform="translate(1297 2583.111)"><path class="a" d="M62.754,131.053,51,123.214a6.952,6.952,0,0,0-8.737.868l-3.093,3.091a19.158,19.158,0,0,1-10.556-5.767,19.159,19.159,0,0,1-5.767-10.556l3.091-3.093a6.947,6.947,0,0,0,.866-8.739L18.964,87.263A6.926,6.926,0,0,0,8.3,86.208l-4.9,4.9A11.456,11.456,0,0,0,.029,99.853c.37,6.282,3.091,18.919,17.153,32.981s26.7,16.784,32.981,17.153a11.435,11.435,0,0,0,8.746-3.375l4.9-4.9a6.925,6.925,0,0,0-1.055-10.66Z" transform="translate(-0.01 -84.18)"/></g><g transform="translate(1331.301 2570)"><path class="a" d="M262.64,0a20.78,20.78,0,0,0-20.779,20.779,20.444,20.444,0,0,0,2.678,10.112L242,38.51a2.321,2.321,0,0,0,.554,2.355,2.235,2.235,0,0,0,2.355.554l7.619-2.54a20.444,20.444,0,0,0,10.112,2.678A20.779,20.779,0,0,0,262.64,0ZM253.4,23.088a2.346,2.346,0,0,1-2.309-2.309A2.315,2.315,0,0,1,253.4,18.47a2.287,2.287,0,0,1,2.309,2.309A2.315,2.315,0,0,1,253.4,23.088Zm9.235,0a2.346,2.346,0,0,1-2.309-2.309,2.315,2.315,0,0,1,2.309-2.309,2.287,2.287,0,0,1,2.309,2.309A2.315,2.315,0,0,1,262.64,23.088Zm9.235,0a2.346,2.346,0,0,1-2.309-2.309,2.315,2.315,0,0,1,2.309-2.309,2.287,2.287,0,0,1,2.309,2.309A2.315,2.315,0,0,1,271.875,23.088Z" transform="translate(-241.861 0)"/></g></g></svg>