<svg xmlns="http://www.w3.org/2000/svg" xmlns:xlink="http://www.w3.org/1999/xlink" width="1000" height="370" viewBox="0 0 1000 370"><defs><style>.a,.c{fill:#fbe3e5;}.az,.b,.ba,.g{fill:#fff;}.c{stroke:#ebb7c3;}.d{clip-path:url(#a);}.e{clip-path:url(#b);}.av,.f,.j{fill:#ff6464;}.f{opacity:0.25;}.g{opacity:0.4;}.h{fill:#252223;opacity:0.1;}.i{fill:url(#c);}.j{opacity:0.32;}.k{fill:#ffa68d;}.l{fill:#f48c76;}.m{fill:#0097f6;}.n{fill:#0085db;}.o{fill:#00acff;}.ae,.p{fill:#47284f;}.q{fill:#bb4063;}.r{fill:#ff406a;}.s{fill:#435277;}.t{fill:#c3d2d7;}.u{fill:#95a4b1;}.v{fill:#ffc8c2;}.w{fill:#ff6e92;}.x{fill:#ffbf67;}.y{fill:#ffa258;}.aa,.z{fill:#e76164;}.z{font-size:7px;font-family:Montserrat-BlackItalic, Montserrat;font-weight:800;font-style:italic;}.ab{fill:#3e4e6c;}.ac{fill:#ffc9ac;}.ad{fill:#3fd3cf;}.ae,.ay,.ba,.bb{opacity:0.3;}.af{fill:#00c5ff;}.ag{fill:#ffeed0;}.ah{fill:url(#d);}.ai{fill:url(#e);}.aj{fill:url(#f);}.ak{fill:url(#g);}.al{fill:url(#h);}.am{fill:url(#i);}.an{fill:url(#j);}.ao{fill:url(#k);}.ap{fill:url(#l);}.aq{fill:url(#m);}.ar{fill:url(#n);}.as{fill:url(#o);}.at{fill:url(#p);}.au{opacity:0.43;}.aw{fill:#ff4f5b;}.ax,.az{opacity:0.2;}.bc{stroke:none;}.bd{fill:none;}</style><clipPath id="a"><rect class="a" width="1000" height="370" rx="25"/></clipPath><clipPath id="b"><rect class="b" width="700" height="312" transform="translate(-0.412 -0.46)"/></clipPath><linearGradient id="c" x1="1205.467" y1="298.189" x2="1205.467" y2="297.055" gradientUnits="objectBoundingBox"><stop offset="0" stop-color="gray" stop-opacity="0.251"/><stop offset="0.54" stop-color="gray" stop-opacity="0.122"/><stop offset="1" stop-color="gray" stop-opacity="0.102"/></linearGradient><linearGradient id="d" y1="0.511" x2="1" y2="0.511" gradientUnits="objectBoundingBox"><stop offset="0" stop-color="#ff6464" stop-opacity="0"/><stop offset="0.544" stop-color="#ff6464"/><stop offset="0.988" stop-color="#ff6464" stop-opacity="0"/></linearGradient><linearGradient id="e" x1="0" y1="0.515" x2="1" y2="0.515" xlink:href="#d"/><linearGradient id="f" x1="0" y1="0.515" x2="1" y2="0.515" xlink:href="#d"/><linearGradient id="g" x1="0" y1="0.491" x2="1" y2="0.491" xlink:href="#d"/><linearGradient id="h" x1="0" y1="0.494" x2="1" y2="0.494" xlink:href="#d"/><linearGradient id="i" x1="0" y1="0.506" x2="1" y2="0.506" xlink:href="#d"/><linearGradient id="j" x1="0" y1="0.499" x2="1" y2="0.499" xlink:href="#d"/><linearGradient id="k" x1="0" y1="0.513" x2="1" y2="0.513" xlink:href="#d"/><linearGradient id="l" x1="0" y1="0.499" x2="1" y2="0.499" xlink:href="#d"/><linearGradient id="m" x1="0" y1="0.492" x2="1" y2="0.492" xlink:href="#d"/><linearGradient id="n" x1="0" y1="0.508" x2="1" y2="0.508" xlink:href="#d"/><linearGradient id="o" x1="0" y1="0.493" x2="1" y2="0.493" xlink:href="#d"/><linearGradient id="p" x1="0" y1="0.513" x2="1" y2="0.513" xlink:href="#d"/></defs><g transform="translate(-40 -1298)"><g class="c" transform="translate(40 1298)"><rect class="bc" width="1000" height="370" rx="25"/><rect class="bd" x="0.5" y="0.5" width="999" height="369" rx="24.5"/></g><g class="d" transform="translate(40 1298)"><g class="e" transform="translate(329.412 57.46)"><g transform="translate(198.841 -0.281)"><path class="f" d="M544.1,218.954V184.605H523.541v34.349H499.19V165.821H481.333V126.105H466.722V85.317h-30.3v40.789H421.807v39.716H404.491V118.055h-9.74V93.9H388.8v24.151H354.165V270.477H327.65v-16.1H311.415v16.1H284.9V218.954H237.28V184.605H216.716v34.349h-1.082v66.014H193.989V246.326H168.014v38.642H146.368V165.821H129.593V126.105H67.9v39.716H51.669V375.669H568.456V218.954Z" transform="translate(-51.669 -63.433)"/><rect class="g" width="22.728" height="12.881" transform="translate(10.282 114.732)"/><rect class="g" width="22.728" height="12.881" transform="translate(61.149 114.732)"/><rect class="g" width="22.728" height="12.881" transform="translate(10.282 139.957)"/><rect class="g" width="22.728" height="12.881" transform="translate(61.149 139.957)"/><rect class="g" width="22.728" height="12.881" transform="translate(10.282 165.182)"/><rect class="g" width="22.728" height="12.881" transform="translate(61.149 165.182)"/><rect class="g" width="22.728" height="12.881" transform="translate(10.282 190.407)"/><rect class="g" width="22.728" height="12.881" transform="translate(61.149 190.407)"/><rect class="g" width="22.728" height="12.881" transform="translate(10.282 215.631)"/><rect class="g" width="22.728" height="12.881" transform="translate(61.149 215.631)"/><rect class="g" width="22.728" height="12.881" transform="translate(10.282 240.856)"/><rect class="g" width="22.728" height="12.881" transform="translate(61.149 240.856)"/><rect class="g" width="22.728" height="12.881" transform="translate(10.282 266.081)"/><rect class="g" width="22.728" height="12.881" transform="translate(61.149 266.081)"/><rect class="g" width="53.031" height="6.44" transform="translate(102.816 234.416)"/><rect class="g" width="53.031" height="6.44" transform="translate(102.816 244.076)"/><rect class="g" width="53.031" height="6.44" transform="translate(102.816 253.737)"/><rect class="g" width="53.031" height="6.44" transform="translate(241.347 237.636)"/><rect class="g" width="53.031" height="6.44" transform="translate(241.347 247.296)"/><rect class="g" width="53.031" height="6.44" transform="translate(241.347 256.957)"/><rect class="g" width="53.031" height="6.44" transform="translate(102.816 263.397)"/><rect class="g" width="53.031" height="6.44" transform="translate(102.816 273.058)"/><rect class="g" width="53.031" height="6.44" transform="translate(102.816 282.718)"/><rect class="g" width="14.611" height="18.784" transform="translate(175.329 167.865)"/><rect class="g" width="14.611" height="18.784" transform="translate(207.256 167.865)"/><rect class="g" width="14.611" height="18.784" transform="translate(175.329 197.92)"/><rect class="g" width="14.611" height="18.784" transform="translate(207.256 197.92)"/><rect class="g" width="14.611" height="18.784" transform="translate(175.329 227.975)"/><rect class="g" width="14.611" height="18.784" transform="translate(207.256 227.975)"/><rect class="g" width="14.611" height="18.784" transform="translate(175.329 258.03)"/><rect class="g" width="14.611" height="18.784" transform="translate(207.256 258.03)"/><rect class="g" width="19.481" height="24.688" transform="translate(302.496 66.966)"/><rect class="g" width="19.481" height="24.688" transform="translate(302.496 102.388)"/><rect class="g" width="19.481" height="24.688" transform="translate(302.496 137.81)"/><rect class="g" width="19.481" height="24.688" transform="translate(302.496 173.232)"/><rect class="g" width="19.481" height="24.688" transform="translate(302.496 208.654)"/><rect class="g" width="19.481" height="24.688" transform="translate(302.496 244.076)"/><rect class="g" width="72.512" height="20.931" transform="translate(363.915 117.416)"/><rect class="g" width="72.512" height="20.931" transform="translate(364.185 162.498)"/><rect class="g" width="72.512" height="20.931" transform="translate(364.456 207.581)"/><rect class="g" width="72.512" height="20.931" transform="translate(364.727 252.663)"/><rect class="g" width="9.74" height="20.394" transform="translate(16.234 73.943)"/><path class="h" d="M430.358,213.454h-3.734a2.579,2.579,0,1,0,.216-5.152H396.483a2.578,2.578,0,0,0,0,5.152h3.734a2.578,2.578,0,1,0-.216,5.152h-4.978a2.579,2.579,0,1,0-.216,5.152h30.358a2.579,2.579,0,1,0,.217-5.152h4.978a2.578,2.578,0,1,0,.216-5.152Z" transform="translate(-153.999 -101.084)"/><path class="i" d="M209.439,336.625l-.054.161C209.385,336.732,209.439,336.679,209.439,336.625Z" transform="translate(-99.047 -140.368)"/><g transform="translate(122.351 47.109)"><ellipse class="j" cx="154.062" cy="5.152" rx="154.062" ry="5.152" transform="translate(0 254.609)"/><g transform="translate(68.779 51.888)"><path class="k" d="M337.964,260.513h-9.795a3.266,3.266,0,0,0-3.3,3.274v6.065a3.266,3.266,0,0,0,3.3,3.274h7.9V270.71h0a9.012,9.012,0,0,0,6.331-2.63l1.19-1.181Z" transform="translate(-324.868 -216.064)"/><path class="k" d="M343.586,256.914l5.682,6.44,24.405-5.635-3.409-8.963Z" transform="translate(-330.491 -212.464)"/><path class="l" d="M381.046,248.756l-1.19.376-.379,9.714,4.978-1.127Z" transform="translate(-341.272 -212.464)"/><path class="m" d="M431.169,198.15h0a7.737,7.737,0,0,0-10.552,1.02l-25.325,29.143-4.6,1.556,4.275,11.271,2.381-.537a19.541,19.541,0,0,0,9.957-5.528l24.622-25.708A7.482,7.482,0,0,0,431.169,198.15Z" transform="translate(-344.642 -196.476)"/><path class="n" d="M392.138,255.224l-.108-.376-4.275-11.271-.433-1.127a1.22,1.22,0,0,0-1.623-.7l-4.167,1.556a1.2,1.2,0,0,0-.7,1.61l.325.912L385.1,256.4l.487,1.288a1.22,1.22,0,0,0,1.623.7l4.167-1.556A1.191,1.191,0,0,0,392.138,255.224Z" transform="translate(-341.65 -210.291)"/><path class="o" d="M422.241,200.327a7.825,7.825,0,0,1,9.47-1.771,4.864,4.864,0,0,0-.541-.483h0a7.737,7.737,0,0,0-10.552,1.02l-25.325,29.143-4.6,1.556.7,1.825,5.141-1.717Z" transform="translate(-344.642 -196.452)"/><g transform="translate(14.405 62.214)"><path class="p" d="M408.761,286.169,356,300.124a14,14,0,0,0-8.5,20.824l30.737,50.879,17.1-7.514-24.568-46.478,50.109-10.412a16.3,16.3,0,0,0,12.176-21.307h-24.3Z" transform="translate(-345.459 -286.116)"/><g transform="translate(20.931 79.699)"><path class="k" d="M408.925,402.912l-1.3-1.932-9.74,4.294,2.273,4.133,10.823-3.005C410.332,405.166,409.628,404.039,408.925,402.912Z" transform="translate(-382.139 -400.98)"/><path class="b" d="M407.2,413.6l-.92,2.308,1.19-.859a2.933,2.933,0,0,1,1.623-.537h5.682a57.333,57.333,0,0,0-2.814-5.8l-10.823,3.005.649,1.181h4.924A.539.539,0,0,1,407.2,413.6Z" transform="translate(-383.115 -403.348)"/><path class="p" d="M387.383,425.291h23l-.433-1.61a48.368,48.368,0,0,0-2.489-7.3h-5.682a2.568,2.568,0,0,0-1.623.537l-1.191.859.92-2.308a.473.473,0,0,0-.433-.644h-4.924l-3.626,3.381a8.959,8.959,0,0,1-6.115,2.415H382.3a6.542,6.542,0,0,0-5.682,3.328l4.762.859A36.289,36.289,0,0,0,387.383,425.291Z" transform="translate(-375.749 -405.218)"/><path class="b" d="M387.012,429.293a33.631,33.631,0,0,1-6.115-.537l-4.762-.859a5.736,5.736,0,0,0-.758,2.845l7.251.644c1.136.107,2.273.161,3.463.161h24.514l-.6-2.254Z" transform="translate(-375.377 -409.22)"/><path class="p" d="M407.626,400.98l-9.74,4.24,1.028,1.932,10.606-3.274Z" transform="translate(-382.139 -400.98)"/></g></g></g><g transform="translate(0 92.795)"><g transform="translate(36.689 16.638)"><path class="q" d="M314.636,279.386h-2.489l-6.385,22.488a70.584,70.584,0,0,0,5.628,52.6l3.139,1.181Z" transform="translate(-286.227 -279.386)"/><path class="r" d="M298.481,301.951l6.385-22.488h-2.327l-13.15,48.464a10.119,10.119,0,0,1-9.741,7.406.655.655,0,0,0-.649.644v9.231l25.055,9.392A70.992,70.992,0,0,1,298.481,301.951Z" transform="translate(-279 -279.41)"/></g><g transform="translate(0 96.283)"><ellipse class="p" cx="35.012" cy="34.724" rx="35.012" ry="34.724"/><ellipse class="s" cx="25.217" cy="25.01" rx="25.217" ry="25.01" transform="translate(9.795 9.714)"/><ellipse class="t" cx="20.617" cy="20.448" rx="20.617" ry="20.448" transform="translate(14.394 14.276)"/><path class="u" d="M272.048,414.825a20.3,20.3,0,0,0-10.606,2.952,17.453,17.453,0,0,1,4.491-.537,18.034,18.034,0,1,1,0,36.066,20.57,20.57,0,0,1-4.491-.537,20.49,20.49,0,1,0,10.606-37.944Z" transform="translate(-237.036 -400.496)"/><ellipse class="u" cx="9.091" cy="9.017" rx="9.091" ry="9.017" transform="translate(25.92 25.708)"/><path class="q" d="M5.7-.418a6.205,6.205,0,0,1,6.169,6.169,6.083,6.083,0,0,1-6.118,6.118A6.205,6.205,0,0,1-.418,5.7,6.083,6.083,0,0,1,5.7-.418Z" transform="translate(26.911 34.74) rotate(-45)"/></g><g transform="translate(179.982 96.283)"><ellipse class="p" cx="35.012" cy="34.724" rx="35.012" ry="34.724"/><ellipse class="s" cx="25.217" cy="25.01" rx="25.217" ry="25.01" transform="translate(9.795 9.714)"/><ellipse class="t" cx="20.617" cy="20.448" rx="20.617" ry="20.448" transform="translate(14.394 14.276)"/><path class="u" d="M529.312,414.825a20.3,20.3,0,0,0-10.606,2.952,17.454,17.454,0,0,1,4.491-.537,18.034,18.034,0,1,1,0,36.066,20.571,20.571,0,0,1-4.491-.537,20.49,20.49,0,1,0,10.606-37.944Z" transform="translate(-494.301 -400.496)"/><ellipse class="u" cx="9.091" cy="9.017" rx="9.091" ry="9.017" transform="translate(25.92 25.708)"/><path class="q" d="M5.7-.418a6.205,6.205,0,0,1,6.169,6.169,6.083,6.083,0,0,1-6.118,6.118A6.205,6.205,0,0,1-.418,5.7,6.083,6.083,0,0,1,5.7-.418Z" transform="translate(26.9 34.716) rotate(-45)"/></g><g transform="translate(1.732 82.383)"><g transform="translate(11.851)"><path class="b" d="M269.132,376.769a41.265,41.265,0,0,1,38.258,30.323l.758,2.791.866.429-1.623-5.85a41.252,41.252,0,0,0-38.258-30.323h-1.407a43.454,43.454,0,0,0-21.754,5.743l1.191,1.986a43.677,43.677,0,0,1,20.563-5.1A6.165,6.165,0,0,1,269.132,376.769Z" transform="translate(-245.971 -374.14)"/><path class="v" d="M272.89,393.679l35.769,17.443-.758-2.791a41.252,41.252,0,0,0-38.258-30.323h-1.407a43.518,43.518,0,0,0-20.563,5.1l6.44,10.627H272.89Z" transform="translate(-246.483 -375.323)"/></g><path class="r" d="M305.6,415.121H288.882a28.418,28.418,0,0,1-20.022-8.212h0a28.417,28.417,0,0,0-20.022-8.212H229.032l6.277-6.226a38.83,38.83,0,0,1,27.327-11.217h0a38.771,38.771,0,0,1,32.577,17.711Z" transform="translate(-229.032 -376.318)"/></g><path class="r" d="M315.708,279.386l-6.385,22.488A70.5,70.5,0,0,0,315.6,355.6l3.193,5.743a51.514,51.514,0,0,0,44.969,26.3h157.8L515.875,367.3a82.694,82.694,0,0,0-36.419-48.249l-10.227-6.279H381.4v3.811a5.887,5.887,0,0,0,4.059,5.582h0a25.447,25.447,0,0,1,17.316,21.092h0a25.62,25.62,0,0,1-25.542,28.66H364.411a36.053,36.053,0,0,1-30.358-16.53L328.1,346.1a46.151,46.151,0,0,1-6.277-34.51l6.927-32.148H315.708Z" transform="translate(-250.61 -262.749)"/><path class="p" d="M498.293,322.572H403.378V311.409h75.651a19.523,19.523,0,0,1,13.961,5.85Z" transform="translate(-279.674 -272.552)"/><g transform="translate(62.134 18.579)"><path class="v" d="M416.66,390.051H374.072A52.994,52.994,0,0,1,327.751,363l-3.193-5.743a71.531,71.531,0,0,1-6.385-54.9,23.413,23.413,0,0,0-2.165-17.872,1.511,1.511,0,0,1,.6-2.093,1.537,1.537,0,0,1,2.11.59,26.426,26.426,0,0,1,2.435,20.233,68.651,68.651,0,0,0,6.115,52.6l3.193,5.743a49.919,49.919,0,0,0,43.616,25.493H416.66a1.564,1.564,0,0,1,1.569,1.556A1.546,1.546,0,0,1,416.66,390.051Z" transform="translate(-315.37 -282.185)"/></g><path class="q" d="M462.4,426.737h97.621l-1.515,1.5a12.8,12.8,0,0,1-8.983,3.7H472.677a13.029,13.029,0,0,1-10.282-5.206Z" transform="translate(-297.402 -307.859)"/><g transform="translate(186.53 92.902)"><ellipse class="u" cx="21.104" cy="20.931" rx="21.104" ry="20.931"/><g transform="translate(4.87 4.83)"><path class="s" d="M516.376,428.463a16.1,16.1,0,1,1,16.234-16.1A16.216,16.216,0,0,1,516.376,428.463Zm0-30.484a14.384,14.384,0,1,0,14.5,14.383A14.444,14.444,0,0,0,516.376,397.979Z" transform="translate(-500.142 -396.261)"/></g><g transform="translate(9.632 9.768)"><g transform="translate(0 10.305)"><path class="s" d="M528.919,419.946h-21.1a.859.859,0,1,1,0-1.717h21.1a.859.859,0,1,1,0,1.717Z" transform="translate(-506.949 -418.229)"/></g><g transform="translate(1.84 6.87)"><path class="s" d="M527.923,415H510.444a.859.859,0,1,1,0-1.717h17.479a.859.859,0,1,1,0,1.717Z" transform="translate(-509.579 -413.278)"/></g><g transform="translate(4.329 3.435)"><path class="s" d="M526.557,410.045H514a.859.859,0,1,1,0-1.717h12.554a.859.859,0,1,1,0,1.717Z" transform="translate(-513.137 -408.328)"/></g><g transform="translate(7.197)"><path class="s" d="M524.866,405.1H518.1a.859.859,0,1,1,0-1.717h6.764a.859.859,0,1,1,0,1.717Z" transform="translate(-517.236 -403.378)"/></g><g transform="translate(1.84 13.739)"><path class="s" d="M527.923,424.9H510.444a.859.859,0,1,1,0-1.717h17.479a.859.859,0,1,1,0,1.717Z" transform="translate(-509.579 -423.179)"/></g><g transform="translate(4.329 17.174)"><path class="s" d="M526.557,429.847H514a.859.859,0,1,1,0-1.717h12.554a.859.859,0,1,1,0,1.717Z" transform="translate(-513.137 -428.13)"/></g><g transform="translate(7.197 20.609)"><path class="s" d="M524.866,434.8H518.1a.859.859,0,1,1,0-1.717h6.764a.851.851,0,0,1,.866.859A.886.886,0,0,1,524.866,434.8Z" transform="translate(-517.236 -433.08)"/></g></g></g><g transform="translate(156.172 59.251)"><path class="w" d="M524.031,350.033h0A64.557,64.557,0,0,0,490.7,340.8h-3.95c-20.022,0-37.014,16.262-36.96,36.12a35.944,35.944,0,0,0,8.821,23.561h97.621l-3.734-13.2A64.047,64.047,0,0,0,524.031,350.033Z" transform="translate(-449.787 -340.802)"/><path class="r" d="M524.538,370.537h0a47.089,47.089,0,0,0-24.405-6.762h-2.868c-14.665,0-27.111,11.915-27.057,26.459a25.955,25.955,0,0,0,6.494,17.228h71.43l-2.76-9.661A47.137,47.137,0,0,0,524.538,370.537Z" transform="translate(-455.921 -347.835)"/></g><g transform="translate(187.396 97.035)"><g transform="translate(4.059 14.652)"><path class="s" d="M533.986,418.2H501.139a.908.908,0,0,1-.92-.912.944.944,0,0,1,.92-.912h32.847a.908.908,0,0,1,.92.912A.945.945,0,0,1,533.986,418.2Z" transform="translate(-500.219 -416.372)"/></g><g transform="translate(3.03 11.002)"><path class="s" d="M532.517,412.937H499.669a.912.912,0,1,1,0-1.825h32.847a.912.912,0,1,1,0,1.825Z" transform="translate(-498.75 -411.113)"/></g><g transform="translate(2.002 7.353)"><path class="s" d="M531.047,407.678H498.2a.912.912,0,1,1,0-1.825h32.847a.908.908,0,0,1,.92.912A.876.876,0,0,1,531.047,407.678Z" transform="translate(-497.28 -405.853)"/></g><g transform="translate(1.028 3.65)"><path class="s" d="M529.655,402.34H496.808a.908.908,0,0,1-.92-.912.944.944,0,0,1,.92-.912h32.847a.908.908,0,0,1,.92.912A.944.944,0,0,1,529.655,402.34Z" transform="translate(-495.888 -400.516)"/></g><path class="s" d="M528.185,397.081H495.338a.912.912,0,1,1,0-1.825h32.847a.912.912,0,1,1,0,1.825Z" transform="translate(-494.418 -395.256)"/></g><path class="q" d="M413.51,327.5h87.773a10.413,10.413,0,0,1-7.305,3.005h-72.3a12.567,12.567,0,0,1-8.171-3.005Z" transform="translate(-282.718 -277.478)"/><path class="r" d="M327.026,272.046H300.89V255.408h5.682a33.834,33.834,0,0,1,14.124,3.113l4.221,1.932a6.079,6.079,0,0,1,3.355,7.084Z" transform="translate(-248.886 -255.408)"/><g transform="translate(47.837 0.054)"><rect class="v" width="2.76" height="16.638" transform="translate(1.407)"/><rect class="b" width="1.407" height="16.638"/></g><g transform="translate(158.337 45.405)"><g transform="translate(79.534 0.684)"><path class="t" d="M594.217,323.4a.872.872,0,0,0,0-1.288.889.889,0,0,0-1.3,0l-7.846,7.728h2.652Z" transform="translate(-572.125 -321.832)"/><path class="b" d="M579.512,333.353,566.85,345.911a.872.872,0,0,0,0,1.288.92.92,0,0,0,1.3,0l14.015-13.9h-2.652Z" transform="translate(-566.566 -325.342)"/></g><path class="b" d="M507.1,333.029H454.451a1.556,1.556,0,1,1,0-3.113H507.1a14.1,14.1,0,0,0,9.957-4.079,17.18,17.18,0,0,1,12.175-4.991h51.192a1.556,1.556,0,1,1,0,3.113H529.236a14.1,14.1,0,0,0-9.957,4.079A17.275,17.275,0,0,1,507.1,333.029Z" transform="translate(-452.881 -320.846)"/></g></g><path class="q" d="M319.422,279.386h13.041l-.271,1.449h-13.2Z" transform="translate(-254.323 -169.954)"/><g transform="translate(213.37 59.681)"><rect class="x" width="92.047" height="67.516" transform="translate(2.652 11.002)"/><rect class="x" width="97.351" height="11.002"/><rect class="y" width="92.047" height="5.367" transform="translate(2.652 11.002)"/><g transform="translate(12.333 26.529)"><text class="z" transform="translate(0 7)"><tspan x="0" y="0">DELIVERY</tspan></text><text class="z" transform="translate(0 22.498)"><tspan x="0" y="0">SERVICE</tspan></text></g><g transform="translate(13.691 21.736)"><path class="aa" d="M551.548,242.955l-.433,1.717h34.957l12.554-1.717Z" transform="translate(-551.115 -240.218)"/><path class="aa" d="M552.476,239.01l-.433,1.717h61.311l12.5-1.717Z" transform="translate(-551.394 -239.01)"/><path class="aa" d="M551.548,296.79l-.433,1.771h34.957l12.554-1.771Z" transform="translate(-551.115 -256.699)"/><path class="aa" d="M552.476,292.845l-.433,1.771h61.311l12.5-1.771Z" transform="translate(-551.394 -255.491)"/></g></g><g transform="translate(72.783)"><g transform="translate(18.593 114.102)"><path class="ab" d="M412.278,286.169l-43.995,13.042a15.4,15.4,0,0,0-8.875,22.756l30.141,49.859,17.1-7.514-24.622-46.478,50.109-10.412a16.3,16.3,0,0,0,12.176-21.307H412.278Z" transform="translate(-357.168 -286.116)"/><g transform="translate(20.477 79.699)"><path class="ac" d="M419.986,402.912l-1.3-1.932-9.741,4.294,2.273,4.133,10.823-3.005A28.151,28.151,0,0,0,419.986,402.912Z" transform="translate(-393.2 -400.98)"/><path class="b" d="M418.334,413.6l-.92,2.308,1.191-.859a2.932,2.932,0,0,1,1.623-.537h5.682a57.314,57.314,0,0,0-2.814-5.8l-10.823,3.005.649,1.181h4.924A.539.539,0,0,1,418.334,413.6Z" transform="translate(-394.199 -403.348)"/><path class="p" d="M398.444,425.291h23l-.433-1.61a48.375,48.375,0,0,0-2.489-7.3h-5.682a2.568,2.568,0,0,0-1.623.537l-1.191.859.92-2.308a.473.473,0,0,0-.433-.644h-4.924l-3.626,3.381a8.959,8.959,0,0,1-6.115,2.415h-2.489a6.542,6.542,0,0,0-5.682,3.328l4.762.859A37.263,37.263,0,0,0,398.444,425.291Z" transform="translate(-386.81 -405.218)"/><path class="b" d="M398.073,429.293a33.631,33.631,0,0,1-6.115-.537L387.2,427.9a5.736,5.736,0,0,0-.758,2.845l7.251.644c1.136.107,2.273.161,3.463.161h24.513l-.6-2.254Z" transform="translate(-386.438 -409.22)"/><path class="p" d="M418.711,400.98l-9.686,4.24,1.028,1.932,10.606-3.274Z" transform="translate(-393.223 -400.98)"/></g></g><g transform="translate(45.239)"><path class="ac" d="M415.954,169.654,414.6,162.14a5.267,5.267,0,0,0-5.195-4.347h-7.576l.7,3.542a18.867,18.867,0,0,1-.162,7.782l-.325,1.449a.967.967,0,0,0,.974,1.181h1.515a10.558,10.558,0,0,0,16.559,5.474l9.416-7.138-4.978,3.435A6.089,6.089,0,0,1,415.954,169.654Z" transform="translate(-397.231 -132.729)"/><path class="k" d="M401.134,154.158l.487,2.576H409.2a5.267,5.267,0,0,1,5.195,4.347l1.353,7.514a6.092,6.092,0,0,0,9.524,3.918l4.979-3.435h0V154.211H401.134Z" transform="translate(-397.022 -131.616)"/><g transform="translate(23.864 37.408)"><path class="p" d="M438.729,175.583l-9.362,7.138,1.245,3.6Z" transform="translate(-429.367 -175.583)"/><path class="ac" d="M445.865,185.459l-6.6-9.875-8.117,10.734,2.11,6.065Z" transform="translate(-429.901 -175.583)"/></g><path class="p" d="M409.134,165.758c.162.859-.108,1.61-.6,1.717-.487.054-.974-.537-1.082-1.4-.162-.859.108-1.61.6-1.717C408.485,164.255,409.026,164.9,409.134,165.758Z" transform="translate(-398.907 -134.737)"/><g transform="translate(6.98 26.311)"><path class="p" d="M406.262,161.241a2.243,2.243,0,0,1,2.381.107c.7.483,1.407-.7.7-1.181a3.69,3.69,0,0,0-3.788-.107.688.688,0,0,0,.7,1.181Z" transform="translate(-405.233 -159.59)"/></g><g transform="translate(4.431 33.007)"><path class="b" d="M407.126,172.461l1.515.537a11.56,11.56,0,0,0,6.872.215l3.788-1.073-.866-1.771-2.922.805a11.547,11.547,0,0,1-6.872-.215l-1.515-.537a27.242,27.242,0,0,0-4.113-1.073l-.541-.107-.487,1.932,1.028.161C404.421,171.656,405.773,172.032,407.126,172.461Z" transform="translate(-401.708 -169.241)"/><path class="ad" d="M419.237,173.015l-3.788,1.073a11.547,11.547,0,0,1-6.872-.215l-1.515-.537a27.235,27.235,0,0,0-4.113-1.073l-1.028-.161-.162.644a5.987,5.987,0,0,0,.162,3.381l.866,2.308a11.013,11.013,0,0,0,9.686,7.138h0a10.927,10.927,0,0,0,7.522-2.415l3.139-2.576Z" transform="translate(-401.589 -170.117)"/><path class="ae" d="M421.477,171.67l.379,1.986a6.11,6.11,0,0,0,6.385,4.991l-3.95-7.782Z" transform="translate(-407.563 -169.738)"/></g><path class="ab" d="M428.124,177.454l-2.868,8.1a.361.361,0,0,0,.433.483h0a6.952,6.952,0,0,0,5.141-3.328l3.626-6.279Z" transform="translate(-404.259 -138.436)"/><path class="r" d="M416.306,148.291l1.569,8.909a2.479,2.479,0,0,0,3.3,1.878l15.585-5.743V142.28a20.7,20.7,0,0,0-20.78-20.609h0a20.672,20.672,0,0,0-20.726,19.965H408.3A8.211,8.211,0,0,1,416.306,148.291Z" transform="translate(-395.256 -121.671)"/><g transform="translate(9.356 3.381)"><g transform="translate(8.609)"><path class="b" d="M436.629,139.908a2.754,2.754,0,0,1-2.489-1.5,11.737,11.737,0,0,0-10.39-6.279,2.791,2.791,0,1,1,0-5.582,17.273,17.273,0,0,1,15.368,9.231,2.807,2.807,0,0,1-1.191,3.757A2.408,2.408,0,0,1,436.629,139.908Z" transform="translate(-420.936 -126.544)"/></g><g transform="translate(0 2.751)"><path class="b" d="M411.449,136.13A2.777,2.777,0,0,1,409.176,135a2.739,2.739,0,0,1,.6-3.864l.108-.107a2.793,2.793,0,0,1,3.9.644,2.742,2.742,0,0,1-.649,3.864l-.108.054A2.512,2.512,0,0,1,411.449,136.13Z" transform="translate(-408.63 -130.508)"/></g></g><path class="q" d="M421.176,167.887a2.479,2.479,0,0,1-3.3-1.878l-1.569-8.909a8.145,8.145,0,0,0-7.955-6.655h-13.1v2.522h12.392a6.154,6.154,0,0,1,6.115,5.1l1.569,8.8a4.977,4.977,0,0,0,6.927,3.65l13.041-5.689a2.455,2.455,0,0,0,1.515-2.254v-.483Z" transform="translate(-395.256 -130.48)"/></g><g transform="translate(67.047 43.526)"><g transform="translate(1.106 3.142)"><path class="o" d="M429.771,251.64l3.842-16.584-5.466-29.787a8.376,8.376,0,0,1,4.221-8.856l12.609-6.923a4.532,4.532,0,0,1,5.141.537h0a51.864,51.864,0,0,1,18.128,34.832l2.381,26.191a4.893,4.893,0,0,1-4.924,5.313H433.667A3.834,3.834,0,0,1,429.771,251.64Z" transform="translate(-428.009 -188.929)"/><path class="m" d="M450.056,207.683l.108.429a17.883,17.883,0,0,1-2.652,14.759L434.85,240.9l-2.543-13.954Z" transform="translate(-429.3 -194.671)"/></g><g transform="translate(0 7.299)"><path class="o" d="M430.974,194.921l-3.463,1.771,3.463,3.7,1.191-2.093Z" transform="translate(-426.753 -194.921)"/><path class="m" d="M427.185,197.473l-.758,6.333L430,200.479Z" transform="translate(-426.428 -195.702)"/></g><path class="af" d="M447.921,187.621l-3.68-3.22-13.1,7.084L432.932,199Z" transform="translate(-427.845 -184.401)"/></g><g transform="translate(0 55)"><path class="ac" d="M343.687,265h-9.795a3.266,3.266,0,0,0-3.3,3.274v6.065a3.266,3.266,0,0,0,3.3,3.274h7.9V275.2h0a9.012,9.012,0,0,0,6.331-2.63l1.191-1.181Z" transform="translate(-330.592 -220.55)"/><path class="ac" d="M349.31,261.4l5.682,6.387,24.405-5.635-3.355-8.909Z" transform="translate(-336.215 -216.951)"/><path class="k" d="M386.847,253.242l-1.19.322-.379,9.768,4.924-1.181Z" transform="translate(-347.019 -216.951)"/><path class="o" d="M436.971,202.559h0a7.737,7.737,0,0,0-10.552,1.02l-25.325,29.143-4.6,1.556,4.275,11.271,2.381-.537a19.541,19.541,0,0,0,9.957-5.528l24.622-25.708A7.567,7.567,0,0,0,436.971,202.559Z" transform="translate(-350.389 -200.938)"/><path class="m" d="M397.939,259.71l-.108-.376-4.275-11.271-.433-1.127a1.22,1.22,0,0,0-1.623-.7l-4.167,1.556a1.2,1.2,0,0,0-.7,1.61l.325.912,3.95,10.573.487,1.288a1.22,1.22,0,0,0,1.623.7l4.167-1.556A1.3,1.3,0,0,0,397.939,259.71Z" transform="translate(-347.397 -214.778)"/><path class="af" d="M428.042,204.813a7.825,7.825,0,0,1,9.47-1.771,4.855,4.855,0,0,0-.541-.483h0a7.737,7.737,0,0,0-10.552,1.02l-25.325,29.143-4.6,1.556.7,1.825,5.141-1.717Z" transform="translate(-350.389 -200.938)"/><g transform="translate(7.653 49.678)"><path class="p" d="M348.326,277.5a2.849,2.849,0,0,1,3.788-1.127h0c-.054-.054-.108-.054-.162-.107l-6.277-3.381a2.742,2.742,0,0,0-3.788,1.127,2.7,2.7,0,0,0,1.136,3.757l6.277,3.381A2.746,2.746,0,0,1,348.326,277.5Z" transform="translate(-341.531 -272.535)"/><path class="s" d="M353.449,283.014a2.775,2.775,0,0,0,1.515-5.1h0a2.788,2.788,0,0,0-2.868,4.777h0A2.954,2.954,0,0,0,353.449,283.014Z" transform="translate(-344.327 -274.075)"/></g></g></g><g transform="translate(265.211 183.18)"><path class="ag" d="M605.647,451.516c1.3-4.133,1.948-5.9,10.552-6.6,2.327-.215,4.708.59,7.035.322s4.816-1.878,4.87-4.24c.054-2.522-2.706-4.723-1.894-7.084.6-1.771,2.814-2.308,4.708-2.2,1.84.107,3.788.644,5.52.054a5.958,5.958,0,0,0,3.68-5.26,16.285,16.285,0,0,0-1.245-6.6,25.467,25.467,0,0,1-1.894-6.494c-.433-4.777,2.327-9.392,5.952-12.612a26.227,26.227,0,0,1,18.507-6.333c6.548.429,14.557,2.844,18.29,8.533a15.328,15.328,0,0,1,2.165,11.485c-.325,1.664-.974,3.327-.541,4.991.649,2.361,3.3,3.542,5.628,4.455s4.924,2.2,5.411,4.616c.433,2.2-1.136,4.347-3.085,5.474s-4.221,1.5-6.385,2.147c-2.165.7-4.329,1.825-5.3,3.864-.812,1.717-.6,3.811-1.3,5.582-1.191,3.005-4.87,4.4-8.117,4.025s-6.115-2.147-8.821-3.918a17.054,17.054,0,0,0-4.221-2.308,5.776,5.776,0,0,0-4.708.376c-1.678,1.073-2.6,3.381-4.546,3.811-1.894.376-3.571-1.234-5.033-2.523s-3.788-2.361-5.249-1.073a6.829,6.829,0,0,0-1.245,2.2c-1.515,3.006-5.411,4.025-8.82,3.65-3.355-.376-6.548-1.771-9.957-2.093C612.411,447.33,606.512,448.832,605.647,451.516Z" transform="translate(-605.647 -388.352)"/><path class="ag" d="M721.13,463.851A8.228,8.228,0,0,1,729.517,466c1.353,1.4,2.111,3.7.974,5.26-.92,1.342-2.814,1.61-4.437,1.288a46.645,46.645,0,0,1-4.6-1.61,5.344,5.344,0,0,0-4.708.376,4.052,4.052,0,0,1-.974.7c-2.273,1.02.216-3.274.541-3.864A8.567,8.567,0,0,1,721.13,463.851Z" transform="translate(-638.444 -409.488)"/><path class="ag" d="M753.059,429.551a3.723,3.723,0,0,1,4,1.342c.92,1.5.108,3.6-1.353,4.616-1.786,1.234-8.063,2.63-9.416-.107C745.266,433.2,751.219,429.98,753.059,429.551Z" transform="translate(-647.862 -399.072)"/><path class="ag" d="M725.4,421.976a2.277,2.277,0,0,0,1.678,1.073,8.787,8.787,0,0,0,2.056,0,7.96,7.96,0,0,0,3.517-.912,3.085,3.085,0,0,0,1.623-3.005C733.248,414.623,723.183,417.951,725.4,421.976Z" transform="translate(-641.525 -395.254)"/><path class="ag" d="M640.212,388.136a3.061,3.061,0,0,0-2,2.683,2.73,2.73,0,0,0,1.407,2.093,5.944,5.944,0,0,0,2.543.644,4.29,4.29,0,0,0,3.139-.8,9.989,9.989,0,0,0,1.245-1.717,5.942,5.942,0,0,1,3.03-2.2c.7-.215,1.84-.429,1.84-1.342,0-.966-1.245-1.61-2.056-1.771a3.626,3.626,0,0,0-2.11.376,20.371,20.371,0,0,1-3.193,1.127A24.933,24.933,0,0,0,640.212,388.136Z" transform="translate(-615.428 -385.672)"/></g><g transform="translate(61.744 9.714)"><rect class="ah" width="102.275" height="1.986" transform="translate(71.43)"/><rect class="ai" width="102.275" height="1.986" transform="translate(83.497 3.972)"/><rect class="aj" width="102.275" height="1.986" transform="translate(0 155.266)"/><rect class="ak" width="102.275" height="1.986" transform="translate(12.121 159.292)"/><rect class="al" width="102.275" height="1.986" transform="translate(84.796 47.444)"/><rect class="am" width="140.317" height="1.986" transform="translate(90.478 43.472)"/><rect class="an" width="140.317" height="1.986" transform="translate(74.839 39.125)"/><rect class="ao" width="102.275" height="1.986" transform="translate(13.204 94.566)"/><rect class="ap" width="140.317" height="1.986" transform="translate(18.832 90.648)"/><rect class="aq" width="140.317" height="1.986" transform="translate(3.193 86.301)"/><rect class="ar" width="102.275" height="1.986" transform="translate(174.571 154.461)"/><rect class="as" width="140.317" height="1.986" transform="translate(150.49 150.543)"/><rect class="at" width="140.317" height="1.986" transform="translate(134.851 146.143)"/></g></g><g class="au" transform="translate(75.001 8.741)"><path class="av" d="M267.915,147.368H159.146c-1.082-2.737,1.245-5.743,3.95-6.87s5.79-.859,8.712-.59,6.061.376,8.658-.966c5.033-2.63,5.682-9.339,7.955-14.491a21.329,21.329,0,0,1,39.611,1.664c1.407,4.133,1.678,8.963,4.87,11.915,3.355,3.113,8.658,2.952,13.1,1.717s8.821-3.22,13.42-3.113C264.073,136.8,268.239,142.806,267.915,147.368Z" transform="translate(-158.875 -80.287)"/><path class="av" d="M494.717,84.08H395.256a21.219,21.219,0,0,1,11.959-11.485,20.9,20.9,0,0,1,16.342,1.342c3.03,1.664,5.79,4.079,9.2,4.616,5.357.805,10.011-3.381,14.557-6.333a37.141,37.141,0,0,1,26.516-5.26C482.866,68.623,489.306,76.62,494.717,84.08Z" transform="translate(-229.884 -66.375)"/><path class="av" d="M687.445,151.591H594.586a12.8,12.8,0,0,1,4.708-8.211,10.858,10.858,0,0,1,8.6-1.771c2.273.483,4.437,1.717,6.764,1.932,3.68.376,7.143-1.825,9.74-4.4,2.652-2.576,4.816-5.635,7.792-7.782a16.647,16.647,0,0,1,24.622,6.118c.92,1.825,1.461,3.864,2.381,5.689a7.681,7.681,0,0,0,4.383,4.133c3.3.966,6.548-1.4,9.9-2.308C678.624,143.595,684.9,147.03,687.445,151.591Z" transform="translate(-289.762 -85.316)"/></g><g transform="translate(151.927 0)"><path class="aw" d="M299.117,76.01a11.981,11.981,0,0,0,.866-4.83c1.028-.859,4.924-1.771,4.924-1.771l-.271-1.449A20.955,20.955,0,0,1,299.5,67.8a13.022,13.022,0,0,0-1.677-3.489,9.076,9.076,0,0,1,2.11-2.737l-.974-1.127a16.146,16.146,0,0,1-2.868,1.825,12.383,12.383,0,0,0-2.327-1.717c-.271-1.288.92-5.152.92-5.152l-1.407-.483a19.881,19.881,0,0,1-2.76,4.347,12.1,12.1,0,0,0-3.68-.376,8.909,8.909,0,0,1-1.3-3.22l-1.461.268a9.9,9.9,0,0,1,.108,3.328,13.658,13.658,0,0,0-3.03,1.181c-1.3-.483-4.059-3.381-4.059-3.381l-1.136.966a19.656,19.656,0,0,1,2.435,4.455,13.847,13.847,0,0,0-2.435,3.381,9.07,9.07,0,0,1-3.193-.483l-.487,1.4a13.317,13.317,0,0,1,2.814,1.4,13.691,13.691,0,0,0-.433,3.328,24.17,24.17,0,0,1-4.708,1.61l.271,1.449a20.065,20.065,0,0,1,4.816.107,12.583,12.583,0,0,0,1.732,3.757,9.567,9.567,0,0,1-2,2.469l.974,1.127a14.033,14.033,0,0,1,2.6-1.717,13.263,13.263,0,0,0,4.546,2.844,19.905,19.905,0,0,1,.271,5.045l1.515.107a20.118,20.118,0,0,1,1.407-4.508,11.844,11.844,0,0,0,3.355-.161,15.292,15.292,0,0,0,1.677-.429,8.83,8.83,0,0,1,1.515,2.737l1.407-.483a11.748,11.748,0,0,1-.6-3.274,11.712,11.712,0,0,0,3.95-3.489,23.477,23.477,0,0,1,4.6,1.825l.758-1.288A17.1,17.1,0,0,1,299.117,76.01ZM284.561,59.158Z" transform="translate(-269.168 -54.127)"/><g class="ax" transform="translate(14.058 5.866)"><path class="b" d="M302,76.8c-.649-.215-.7-1.449-1.191-3.113a3.009,3.009,0,0,0-.216-.644c-.054-.215-.162-.429-.216-.7a10.448,10.448,0,0,0-.649-1.4,9.414,9.414,0,0,0-2-2.683,9.844,9.844,0,0,0-2.76-1.825c-.487-.215-.974-.376-1.461-.537-.216-.054-.487-.161-.7-.215l-.649-.161c-1.678-.376-2.976-.429-3.193-1.073a.518.518,0,0,1,.054-.483,1.79,1.79,0,0,1,.541-.59,5.93,5.93,0,0,1,2.543-1.02,4.8,4.8,0,0,1,.92-.107,6.566,6.566,0,0,1,1.028,0,11.075,11.075,0,0,1,2.219.322,10.451,10.451,0,0,1,2.327.912,12.223,12.223,0,0,1,2.219,1.61,10.2,10.2,0,0,1,2.76,4.455,11.273,11.273,0,0,1,.433,2.2,6.416,6.416,0,0,1,0,1.02,4.688,4.688,0,0,1-.108.912,5.888,5.888,0,0,1-.92,2.576,1.559,1.559,0,0,1-.6.59A1.228,1.228,0,0,1,302,76.8Z" transform="translate(-288.927 -62.232)"/></g><g transform="translate(0 2.114)"><g transform="translate(5.935)"><path class="aw" d="M279.576,56.9c.162.215-.162.805-.812,1.4-.216.215-.433.322-.6.483-.379.215-.7.322-.812.161-.162-.215.162-.805.812-1.4S279.414,56.682,279.576,56.9Z" transform="translate(-277.316 -56.823)"/><path class="ay" d="M278.613,59.109a5.069,5.069,0,0,0,1.082-1.02l.649.644a6.139,6.139,0,0,1-1.515.644Z" transform="translate(-277.706 -57.211)"/></g><g transform="translate(2.256 8.38)"><path class="aw" d="M273.235,68.913c.271.107.271.805,0,1.556a2.1,2.1,0,0,1-.325.7c-.216.376-.433.644-.649.59-.271-.107-.271-.805,0-1.556C272.531,69.4,272.964,68.805,273.235,68.913Z" transform="translate(-272.058 -68.9)"/><path class="ay" d="M273.353,71.45A3.445,3.445,0,0,0,273.786,70c.271.107.541.161.866.268a4.546,4.546,0,0,1-.974,1.288Z" transform="translate(-272.447 -69.237)"/></g><g transform="translate(0 16.278)"><path class="aw" d="M269.073,80.287c.271-.054.649.537.812,1.4a4.175,4.175,0,0,1,.108.751c0,.429-.108.751-.271.805-.271.054-.649-.537-.812-1.4C268.748,81.039,268.857,80.341,269.073,80.287Z" transform="translate(-268.832 -80.284)"/><path class="ay" d="M270.352,82.571a4.918,4.918,0,0,0-.325-1.449c.271-.054.6-.161.866-.215a5.377,5.377,0,0,1-.216,1.61Z" transform="translate(-269.191 -80.475)"/></g><g transform="translate(4.82 24.064)"><path class="aw" d="M275.8,92.028c.216-.161.812.161,1.407.805.216.215.325.429.487.59.216.376.325.7.162.805-.216.161-.812-.161-1.407-.805C275.851,92.887,275.58,92.242,275.8,92.028Z" transform="translate(-275.723 -91.652)"/><path class="ay" d="M277.939,93.222a3.227,3.227,0,0,0-1.028-1.073,3.66,3.66,0,0,0,.649-.644,4.211,4.211,0,0,1,.6,1.5Z" transform="translate(-276.08 -91.504)"/></g></g><g transform="translate(13.336 24.808)"><g transform="translate(0 8.4)"><path class="aw" d="M287.895,103.323c0-.268.7-.429,1.569-.376a3.219,3.219,0,0,1,.758.107c.433.107.7.268.7.483,0,.268-.7.429-1.569.376C288.544,103.86,287.895,103.592,287.895,103.323Z" transform="translate(-287.895 -102.035)"/><path class="ay" d="M290.493,102.657a4.561,4.561,0,0,0-1.515-.107,5.475,5.475,0,0,1,.054-.912,4.854,4.854,0,0,1,1.515.7Z" transform="translate(-288.22 -101.637)"/></g><g transform="translate(9.674 6.236)"><path class="aw" d="M301.735,100.257c-.108-.268.487-.7,1.245-.966a5.585,5.585,0,0,1,.758-.215c.433-.054.758,0,.866.161.108.268-.487.7-1.245.966C302.547,100.471,301.843,100.525,301.735,100.257Z" transform="translate(-301.722 -98.682)"/><path class="ay" d="M303.781,98.911a3.287,3.287,0,0,0-1.407.537c-.108-.268-.216-.537-.325-.859a5.214,5.214,0,0,1,1.623,0Z" transform="translate(-301.821 -98.517)"/></g><g transform="translate(18.777)"><path class="aw" d="M315.849,92.188c-.216-.107-.108-.805.325-1.556a3.338,3.338,0,0,1,.433-.644c.271-.322.6-.537.758-.429.216.107.108.805-.325,1.556C316.606,91.813,316.119,92.3,315.849,92.188Z" transform="translate(-315.037 -89.53)"/><path class="ay" d="M316.25,90.172a4.668,4.668,0,0,0-.7,1.288,5.934,5.934,0,0,1-.812-.429,4.416,4.416,0,0,1,1.245-1.073Z" transform="translate(-314.735 -89.661)"/></g></g><g transform="translate(10.106 17.579)"><path class="ay" d="M286.547,81.941c.162.966-.216,1.825-.866,1.932s-1.3-.59-1.515-1.5c-.162-.966.216-1.825.866-1.932C285.735,80.331,286.385,80.975,286.547,81.941Z" transform="translate(-283.533 -79.515)"/><path class="aw" d="M285.7,80.626c.162.966-.216,1.825-.866,1.932s-1.3-.59-1.515-1.5c-.162-.966.216-1.825.866-1.932S285.534,79.714,285.7,80.626Z" transform="translate(-283.278 -79.113)"/><path class="az" d="M285.7,80.626c.162.966-.216,1.825-.866,1.932s-1.3-.59-1.515-1.5c-.162-.966.216-1.825.866-1.932S285.534,79.714,285.7,80.626Z" transform="translate(-283.278 -79.113)"/></g><g transform="translate(9.343 8.838)"><path class="ay" d="M283.985,68.162c.758-.59,1.732-.644,2.11-.161.433.537.108,1.4-.649,2.039-.758.59-1.732.644-2.11.161C282.957,69.665,283.227,68.806,283.985,68.162Z" transform="translate(-282.481 -66.87)"/><path class="aw" d="M283.042,67c.758-.59,1.732-.644,2.11-.161.433.537.108,1.4-.649,2.039a1.542,1.542,0,0,1-2.11.161C281.96,68.5,282.23,67.592,283.042,67Z" transform="translate(-282.188 -66.515)"/><path class="az" d="M283.042,67c.758-.59,1.732-.644,2.11-.161.433.537.108,1.4-.649,2.039a1.542,1.542,0,0,1-2.11.161C281.96,68.5,282.23,67.592,283.042,67Z" transform="translate(-282.188 -66.515)"/></g><g transform="translate(15.159 23.048)"><path class="ay" d="M292.945,88.844a1.157,1.157,0,1,1-1.353-.912A1.145,1.145,0,0,1,292.945,88.844Z" transform="translate(-290.547 -87.271)"/><path class="aw" d="M292.79,87.923a1.157,1.157,0,1,1-1.353-.912A1.235,1.235,0,0,1,292.79,87.923Z" transform="translate(-290.501 -86.994)"/><path class="ba" d="M292.79,87.923a1.157,1.157,0,1,1-1.353-.912A1.235,1.235,0,0,1,292.79,87.923Z" transform="translate(-290.501 -86.994)"/></g><g transform="translate(20.641 10.282)"><ellipse class="ay" cx="1.461" cy="1.449" rx="1.461" ry="1.449" transform="translate(0 0.599)"/><path class="aw" d="M301.6,70.806a1.471,1.471,0,0,1-2,.429,1.444,1.444,0,0,1-.433-1.986,1.471,1.471,0,0,1,2-.429A1.4,1.4,0,0,1,301.6,70.806Z" transform="translate(-298.519 -68.596)"/><path class="ba" d="M301.6,70.806a1.471,1.471,0,0,1-2,.429,1.444,1.444,0,0,1-.433-1.986,1.471,1.471,0,0,1,2-.429A1.4,1.4,0,0,1,301.6,70.806Z" transform="translate(-298.519 -68.596)"/></g><g transform="translate(21.811 23.541)"><path class="ay" d="M301.862,89.028a.849.849,0,1,1-.974-.7A.932.932,0,0,1,301.862,89.028Z" transform="translate(-300.055 -87.894)"/><path class="aw" d="M301.707,88.409a.849.849,0,1,1-.974-.7A.852.852,0,0,1,301.707,88.409Z" transform="translate(-300.009 -87.705)"/><path class="ba" d="M301.707,88.409a.849.849,0,1,1-.974-.7A.852.852,0,0,1,301.707,88.409Z" transform="translate(-300.009 -87.705)"/></g><g transform="translate(14.036)"><g transform="translate(20.837 13.025)"><path class="aw" d="M320.3,75.451c-.271.054-.6-.537-.812-1.342a4.181,4.181,0,0,1-.108-.751c0-.429.108-.751.271-.805.271-.054.6.537.812,1.342C320.621,74.7,320.567,75.4,320.3,75.451Z" transform="translate(-318.889 -72.549)"/><path class="ay" d="M319.221,73.714a4.917,4.917,0,0,0,.325,1.449c-.271.054-.6.161-.866.215a5.379,5.379,0,0,1,.216-1.61Z" transform="translate(-318.68 -72.906)"/></g><g transform="translate(15.402 5.581)"><path class="aw" d="M312.991,64.008c-.216.161-.812-.161-1.353-.751a5.7,5.7,0,0,0-.487-.59c-.216-.376-.325-.7-.162-.805.216-.161.812.161,1.353.751C312.937,63.149,313.208,63.793,312.991,64.008Z" transform="translate(-310.911 -61.82)"/><path class="ay" d="M311.239,63.04a3.227,3.227,0,0,0,1.028,1.073,6.469,6.469,0,0,0-.649.59,4.211,4.211,0,0,1-.6-1.5Z" transform="translate(-310.944 -62.193)"/></g><g transform="translate(9.411)"><path class="aw" d="M305.17,54.945c-.108.268-.812.268-1.569,0-.271-.107-.487-.215-.7-.322-.379-.215-.6-.429-.541-.644.108-.268.812-.268,1.569,0S305.278,54.676,305.17,54.945Z" transform="translate(-302.347 -53.777)"/><path class="ay" d="M303.14,55a4.7,4.7,0,0,0,1.407.429,7.592,7.592,0,0,1-.271.859,5.111,5.111,0,0,1-1.3-1.02Z" transform="translate(-302.537 -54.15)"/></g><g transform="translate(0 0.714)"><path class="aw" d="M291.821,55.045c.054.268-.541.59-1.353.805a4.279,4.279,0,0,1-.758.107c-.433,0-.758-.107-.812-.268-.054-.268.541-.59,1.353-.805C291.063,54.723,291.767,54.83,291.821,55.045Z" transform="translate(-288.896 -54.806)"/><path class="ay" d="M290.138,56.323A3.621,3.621,0,0,0,291.6,56a6.631,6.631,0,0,0,.216.859,5.7,5.7,0,0,1-1.623-.215Z" transform="translate(-289.269 -55.172)"/></g></g><g transform="translate(23.751 18.584)"><path class="ay" d="M305.192,83.4c-.325.912-1.028,1.5-1.677,1.342-.649-.215-.92-1.127-.6-2.039s1.028-1.5,1.678-1.342C305.192,81.575,305.462,82.487,305.192,83.4Z" transform="translate(-302.781 -80.797)"/><path class="aw" d="M305.733,82.626c-.325.912-1.028,1.5-1.678,1.342-.649-.215-.92-1.127-.6-2.039s1.028-1.5,1.678-1.342C305.787,80.8,306.058,81.714,305.733,82.626Z" transform="translate(-302.944 -80.56)"/><path class="ba" d="M305.733,82.626c-.325.912-1.028,1.5-1.678,1.342-.649-.215-.92-1.127-.6-2.039s1.028-1.5,1.678-1.342C305.787,80.8,306.058,81.714,305.733,82.626Z" transform="translate(-302.944 -80.56)"/></g><g transform="translate(16.179 14.168)"><path class="ay" d="M295.679,77.1a1.761,1.761,0,1,1-2.056-1.4A1.705,1.705,0,0,1,295.679,77.1Z" transform="translate(-292.029 -74.646)"/><path class="aw" d="M295.447,75.633a1.761,1.761,0,1,1-2.056-1.4A1.705,1.705,0,0,1,295.447,75.633Z" transform="translate(-291.959 -74.196)"/><path class="az" d="M295.447,75.633a1.761,1.761,0,1,1-2.056-1.4A1.705,1.705,0,0,1,295.447,75.633Z" transform="translate(-291.959 -74.196)"/></g><g class="bb" transform="translate(7.979 23.244)"><path d="M298.311,89.352c.108.107,0,.429-.379.859a6.707,6.707,0,0,1-1.786,1.5,8.637,8.637,0,0,1-1.407.751,13.884,13.884,0,0,1-1.786.59,11.228,11.228,0,0,1-4.275.268,12.262,12.262,0,0,1-4.113-1.234c-.6-.322-1.082-.644-1.569-.966a7.875,7.875,0,0,1-1.191-1.073,6.429,6.429,0,0,1-1.353-1.825c-.216-.483-.271-.805-.162-.912.271-.215,1.082.59,2.543,1.5.379.215.758.483,1.191.7a9.167,9.167,0,0,0,1.461.644,13.635,13.635,0,0,0,3.463.912,11.249,11.249,0,0,0,3.572-.107,13.489,13.489,0,0,0,1.569-.322,9.947,9.947,0,0,0,1.353-.429C297.121,89.62,298.095,89.083,298.311,89.352Z" transform="translate(-280.237 -87.277)"/></g><g class="bb" transform="translate(6.229 18.841)"><path d="M278.62,80.968a1.076,1.076,0,1,1-.866,1.288A1.129,1.129,0,0,1,278.62,80.968Z" transform="translate(-277.736 -80.931)"/></g></g><g transform="translate(93.184 82.638)"><path class="aw" d="M209.5,191a9.679,9.679,0,0,0,.7-3.918,16.223,16.223,0,0,1,4-1.449l-.216-1.181a16.944,16.944,0,0,1-4.221-.107,10.608,10.608,0,0,0-1.353-2.844,6.54,6.54,0,0,1,1.732-2.2l-.812-.912a8.991,8.991,0,0,1-2.327,1.449,9.556,9.556,0,0,0-1.894-1.4c-.216-1.073.758-4.186.758-4.186l-1.136-.376a19.2,19.2,0,0,1-2.219,3.542,9.558,9.558,0,0,0-3.03-.322,6.9,6.9,0,0,1-1.028-2.63l-1.191.215a9.587,9.587,0,0,1,.108,2.683,9.974,9.974,0,0,0-2.489.966,16.446,16.446,0,0,1-3.3-2.737l-.92.805a15.044,15.044,0,0,1,1.948,3.6,11.173,11.173,0,0,0-2,2.737,8.051,8.051,0,0,1-2.6-.376l-.379,1.127a8.685,8.685,0,0,1,2.273,1.127,11.044,11.044,0,0,0-.325,2.684,19.386,19.386,0,0,1-3.788,1.288l.216,1.181a15.835,15.835,0,0,1,3.95.107,11.325,11.325,0,0,0,1.407,3.059,7.291,7.291,0,0,1-1.623,1.986l.812.912a12.582,12.582,0,0,1,2.11-1.4,10.144,10.144,0,0,0,3.68,2.308,17.252,17.252,0,0,1,.216,4.133l1.245.107a16.127,16.127,0,0,1,1.136-3.65,11.891,11.891,0,0,0,2.76-.107c.487-.107.92-.215,1.353-.322a8.033,8.033,0,0,1,1.191,2.254l1.136-.376a10.754,10.754,0,0,1-.487-2.63,9.031,9.031,0,0,0,3.193-2.844,19.316,19.316,0,0,1,3.734,1.5l.6-1.073A21.264,21.264,0,0,1,209.5,191Zm-11.8-13.686Z" transform="translate(-185.144 -173.184)"/><g class="ax" transform="translate(11.45 4.723)"><path class="b" d="M211.86,191.6c-.487-.161-.6-1.181-.974-2.522-.054-.161-.108-.322-.162-.537a2.233,2.233,0,0,0-.216-.537l-.487-1.127a8.545,8.545,0,0,0-1.623-2.2,8.779,8.779,0,0,0-2.273-1.5,11.07,11.07,0,0,0-1.191-.483c-.216-.054-.379-.107-.541-.161a1.936,1.936,0,0,0-.541-.107c-1.353-.322-2.435-.376-2.6-.859a.631.631,0,0,1,.054-.429,1.743,1.743,0,0,1,.433-.483,4.9,4.9,0,0,1,2.056-.859c.216-.054.487-.054.758-.107h.812a10.252,10.252,0,0,1,1.786.268,6.345,6.345,0,0,1,1.894.751,8.16,8.16,0,0,1,1.84,1.288,8.834,8.834,0,0,1,1.407,1.771,6.386,6.386,0,0,1,.812,1.878,7.224,7.224,0,0,1,.325,1.771v.805a3.274,3.274,0,0,1-.054.751,4.878,4.878,0,0,1-.758,2.093,2.056,2.056,0,0,1-.487.483C212.131,191.6,212.022,191.651,211.86,191.6Z" transform="translate(-201.231 -179.683)"/></g><g transform="translate(0 1.724)"><g transform="translate(4.774)"><path class="aw" d="M193.571,175.408c.162.161-.162.644-.649,1.127a2.972,2.972,0,0,1-.487.376c-.325.215-.6.268-.7.161-.162-.161.162-.644.649-1.127C192.922,175.515,193.409,175.247,193.571,175.408Z" transform="translate(-191.689 -175.361)"/><path class="ay" d="M192.832,177.239a4.107,4.107,0,0,0,.92-.805l.541.537a3.631,3.631,0,0,1-1.245.483Z" transform="translate(-192.032 -175.689)"/></g><g transform="translate(1.894 6.806)"><path class="aw" d="M188.438,185.173c.216.054.216.644,0,1.288-.054.215-.162.429-.216.59-.162.322-.379.537-.487.483-.216-.054-.216-.644,0-1.288C187.9,185.6,188.276,185.119,188.438,185.173Z" transform="translate(-187.573 -185.169)"/><path class="ay" d="M188.578,187.284a2.556,2.556,0,0,0,.379-1.181c.216.054.433.161.7.215a3.326,3.326,0,0,1-.812,1.02Z" transform="translate(-187.875 -185.455)"/></g><g transform="translate(0 13.246)"><path class="aw" d="M185.082,194.455c.216-.054.487.429.649,1.127a2.59,2.59,0,0,1,.054.644c0,.376-.054.644-.216.644-.216.054-.487-.429-.649-1.127C184.811,195.045,184.865,194.509,185.082,194.455Z" transform="translate(-184.865 -194.451)"/><path class="ay" d="M186.064,196.262a4.278,4.278,0,0,0-.271-1.181c.216-.054.487-.107.7-.161a3.833,3.833,0,0,1-.216,1.342Z" transform="translate(-185.144 -194.595)"/></g><g transform="translate(3.903 19.583)"><path class="aw" d="M190.491,204.03c.162-.161.649.161,1.136.644a2.952,2.952,0,0,1,.379.483c.216.322.271.59.162.7-.162.161-.649-.161-1.136-.644C190.6,204.727,190.329,204.191,190.491,204.03Z" transform="translate(-190.444 -203.708)"/><path class="ay" d="M192.329,204.979a2.954,2.954,0,0,0-.812-.912c.162-.161.379-.322.541-.483a3.568,3.568,0,0,1,.487,1.234Z" transform="translate(-190.766 -203.584)"/></g></g><g transform="translate(10.873 20.116)"><g transform="translate(0 6.934)"><path class="aw" d="M200.411,213.183c0-.215.6-.376,1.245-.322a2.736,2.736,0,0,1,.649.107c.379.107.6.215.6.376,0,.215-.6.376-1.245.322C200.9,213.613,200.357,213.4,200.411,213.183Z" transform="translate(-200.407 -212.164)"/><path class="ay" d="M202.508,212.665a3.58,3.58,0,0,0-1.245-.054v-.751a4.961,4.961,0,0,1,1.245.537Z" transform="translate(-200.664 -211.86)"/></g><g transform="translate(7.846 5.145)"><path class="aw" d="M211.626,210.651c-.054-.215.379-.537,1.028-.805.216-.054.433-.107.6-.161.379-.054.649,0,.7.107.054.215-.379.537-1.028.805S211.68,210.866,211.626,210.651Z" transform="translate(-211.622 -209.399)"/><path class="ay" d="M213.267,209.622a3.012,3.012,0,0,0-1.136.429,5.99,5.99,0,0,0-.271-.7,3.605,3.605,0,0,1,1.353,0Z" transform="translate(-211.693 -209.282)"/></g><g transform="translate(15.264)"><path class="aw" d="M223.106,204.078c-.216-.107-.108-.7.271-1.288a1.927,1.927,0,0,1,.379-.537c.216-.268.487-.429.6-.376.216.107.108.7-.271,1.288C223.755,203.81,223.322,204.185,223.106,204.078Z" transform="translate(-222.457 -201.867)"/><path class="ay" d="M223.47,202.531a3.8,3.8,0,0,0-.6,1.073l-.649-.322a3.61,3.61,0,0,1,1.028-.859Z" transform="translate(-222.225 -202.038)"/></g></g><g transform="translate(8.237 14.316)"><path class="ay" d="M199.357,195.84c.162.805-.162,1.5-.7,1.556-.541.107-1.082-.483-1.191-1.234s.162-1.5.7-1.556C198.654,194.5,199.195,195.035,199.357,195.84Z" transform="translate(-196.88 -193.84)"/><path class="aw" d="M198.576,194.757c.162.805-.162,1.5-.7,1.556-.541.107-1.082-.483-1.191-1.234-.162-.805.162-1.5.7-1.556C197.926,193.415,198.468,193.952,198.576,194.757Z" transform="translate(-196.64 -193.509)"/><path class="az" d="M198.576,194.757c.162.805-.162,1.5-.7,1.556-.541.107-1.082-.483-1.191-1.234-.162-.805.162-1.5.7-1.556C197.926,193.415,198.468,193.952,198.576,194.757Z" transform="translate(-196.64 -193.509)"/></g><g transform="translate(7.589 7.223)"><path class="ay" d="M197.181,184.612c.649-.483,1.407-.537,1.732-.107s.108,1.181-.541,1.664-1.407.537-1.732.107S196.586,185.1,197.181,184.612Z" transform="translate(-195.95 -183.57)"/><path class="aw" d="M196.4,183.684c.649-.483,1.407-.537,1.732-.107s.108,1.181-.541,1.664-1.407.537-1.732.107C195.538,184.865,195.754,184.167,196.4,183.684Z" transform="translate(-195.713 -183.285)"/><path class="az" d="M196.4,183.684c.649-.483,1.407-.537,1.732-.107s.108,1.181-.541,1.664-1.407.537-1.732.107C195.538,184.865,195.754,184.167,196.4,183.684Z" transform="translate(-195.713 -183.285)"/></g><g transform="translate(12.319 18.764)"><path class="ay" d="M204.493,201.388a.934.934,0,0,1-1.84.322.934.934,0,0,1,1.84-.322Z" transform="translate(-202.526 -200.133)"/><path class="aw" d="M204.333,200.691a.934.934,0,1,1-1.082-.751A.916.916,0,0,1,204.333,200.691Z" transform="translate(-202.474 -199.919)"/><path class="ba" d="M204.333,200.691a.934.934,0,1,1-1.082-.751A.916.916,0,0,1,204.333,200.691Z" transform="translate(-202.474 -199.919)"/></g><g transform="translate(16.829 8.368)"><ellipse class="ay" cx="1.191" cy="1.181" rx="1.191" ry="1.181" transform="translate(0 0.487)"/><path class="aw" d="M211.548,186.712a1.211,1.211,0,0,1-1.623.376,1.19,1.19,0,0,1-.379-1.61,1.211,1.211,0,0,1,1.623-.376A1.11,1.11,0,0,1,211.548,186.712Z" transform="translate(-209.059 -184.937)"/><path class="ba" d="M211.548,186.712a1.211,1.211,0,0,1-1.623.376,1.19,1.19,0,0,1-.379-1.61,1.211,1.211,0,0,1,1.623-.376A1.11,1.11,0,0,1,211.548,186.712Z" transform="translate(-209.059 -184.937)"/></g><g transform="translate(17.795 19.206)"><path class="ay" d="M211.74,201.635a.69.69,0,1,1-.812-.537A.675.675,0,0,1,211.74,201.635Z" transform="translate(-210.325 -200.714)"/><path class="aw" d="M211.663,201.1a.69.69,0,1,1-.812-.537A.717.717,0,0,1,211.663,201.1Z" transform="translate(-210.302 -200.555)"/><path class="ba" d="M211.663,201.1a.69.69,0,1,1-.812-.537A.717.717,0,0,1,211.663,201.1Z" transform="translate(-210.302 -200.555)"/></g><g transform="translate(11.414)"><g transform="translate(16.942 10.569)"><path class="aw" d="M226.8,190.474c-.216.054-.487-.429-.649-1.127a2.386,2.386,0,0,1-.054-.59c0-.376.054-.644.216-.644.216-.054.487.429.649,1.127C227.067,189.883,227.013,190.42,226.8,190.474Z" transform="translate(-225.606 -188.108)"/><path class="ay" d="M225.829,189.12a4.278,4.278,0,0,0,.271,1.181c-.216.054-.487.107-.7.161a3.438,3.438,0,0,1,.216-1.288Z" transform="translate(-225.396 -188.418)"/></g><g transform="translate(12.515 4.52)"><path class="aw" d="M220.79,181.2c-.162.161-.649-.161-1.136-.644a2.953,2.953,0,0,1-.379-.483c-.162-.322-.271-.59-.162-.644.162-.161.649.161,1.136.644C220.736,180.506,220.952,181.042,220.79,181.2Z" transform="translate(-219.069 -179.39)"/><path class="ay" d="M219.348,180.379a2.474,2.474,0,0,0,.812.859,4.863,4.863,0,0,1-.541.483,3.667,3.667,0,0,1-.487-1.181Z" transform="translate(-219.088 -179.693)"/></g><g transform="translate(7.624)"><path class="aw" d="M214.415,173.788c-.054.215-.649.215-1.3,0a2.008,2.008,0,0,1-.6-.268c-.325-.161-.487-.376-.433-.483.054-.215.649-.215,1.3,0S214.523,173.628,214.415,173.788Z" transform="translate(-212.078 -172.876)"/><path class="ay" d="M212.819,173.882a4.286,4.286,0,0,0,1.136.376c-.054.215-.162.429-.216.7a4.545,4.545,0,0,1-1.028-.805Z" transform="translate(-212.268 -173.184)"/></g><g transform="translate(0 0.59)"><path class="aw" d="M203.565,173.942c.054.215-.433.483-1.136.644a2.447,2.447,0,0,1-.6.054c-.379,0-.649-.054-.649-.215-.054-.215.433-.483,1.136-.644C202.916,173.673,203.511,173.727,203.565,173.942Z" transform="translate(-201.18 -173.727)"/><path class="ay" d="M202.192,174.924a2.9,2.9,0,0,0,1.19-.268c.054.215.108.429.162.7a4.809,4.809,0,0,1-1.3-.161Z" transform="translate(-201.484 -174.011)"/></g></g><g transform="translate(19.343 15.104)"><path class="ay" d="M214.438,196.958c-.216.751-.866,1.234-1.353,1.073s-.7-.912-.487-1.664.866-1.234,1.353-1.073A1.291,1.291,0,0,1,214.438,196.958Z" transform="translate(-212.514 -194.833)"/><path class="aw" d="M214.9,196.339c-.216.751-.866,1.234-1.353,1.073s-.7-.912-.487-1.664.866-1.234,1.353-1.073C214.956,194.836,215.172,195.587,214.9,196.339Z" transform="translate(-212.653 -194.644)"/><path class="ba" d="M214.9,196.339c-.216.751-.866,1.234-1.353,1.073s-.7-.912-.487-1.664.866-1.234,1.353-1.073C214.956,194.836,215.172,195.587,214.9,196.339Z" transform="translate(-212.653 -194.644)"/></g><g transform="translate(13.121 11.51)"><path class="ay" d="M206.672,191.841a1.454,1.454,0,1,1-1.678-1.181A1.474,1.474,0,0,1,206.672,191.841Z" transform="translate(-203.667 -189.827)"/><path class="aw" d="M206.517,190.674a1.454,1.454,0,1,1-1.678-1.181A1.414,1.414,0,0,1,206.517,190.674Z" transform="translate(-203.62 -189.465)"/><path class="az" d="M206.517,190.674a1.454,1.454,0,1,1-1.678-1.181A1.414,1.414,0,0,1,206.517,190.674Z" transform="translate(-203.62 -189.465)"/></g><g class="bb" transform="translate(6.585 18.867)"><path d="M208.905,201.81c.108.107,0,.322-.271.7a6.8,6.8,0,0,1-1.407,1.234,5.614,5.614,0,0,1-1.136.59,10.8,10.8,0,0,1-1.407.483,9.148,9.148,0,0,1-3.463.215,10.655,10.655,0,0,1-3.355-1.02,13.623,13.623,0,0,1-1.3-.805,7.845,7.845,0,0,1-.974-.859,8.973,8.973,0,0,1-1.136-1.5c-.216-.376-.216-.644-.108-.751.216-.161.92.483,2.056,1.234.271.215.649.376.974.59.379.161.758.376,1.191.537a14.343,14.343,0,0,0,2.814.751,13.174,13.174,0,0,0,2.922-.054,8.474,8.474,0,0,0,1.245-.268c.379-.107.758-.215,1.082-.322C207.931,202.024,208.743,201.595,208.905,201.81Z" transform="translate(-194.278 -200.067)"/></g><g class="bb" transform="translate(5.066 15.326)"><path d="M192.831,194.988a.886.886,0,0,1,1.082.644.912.912,0,0,1-.7,1.073.885.885,0,0,1-1.082-.644A.912.912,0,0,1,192.831,194.988Z" transform="translate(-192.106 -194.964)"/></g></g><g transform="translate(350.474 0.523)"><path class="aw" d="M575.576,71.453a9.113,9.113,0,0,0,.649-3.65,15.347,15.347,0,0,1,3.734-1.342l-.216-1.073a17.571,17.571,0,0,1-3.95-.107,7.981,7.981,0,0,0-1.3-2.63,6.525,6.525,0,0,1,1.623-2.093l-.758-.859a11.24,11.24,0,0,1-2.219,1.4,11.057,11.057,0,0,0-1.786-1.342c-.216-1.02.7-3.918.7-3.918l-1.082-.376a16.188,16.188,0,0,1-2.056,3.274,12.227,12.227,0,0,0-2.814-.322,6.72,6.72,0,0,1-.974-2.469l-1.082.215a8.519,8.519,0,0,1,.108,2.522,11.028,11.028,0,0,0-2.327.912,14.059,14.059,0,0,1-3.084-2.576l-.866.751a16.531,16.531,0,0,1,1.84,3.381,9.749,9.749,0,0,0-1.84,2.576,7.045,7.045,0,0,1-2.435-.376l-.379,1.073a8.2,8.2,0,0,1,2.11,1.073,9.775,9.775,0,0,0-.325,2.522,15.492,15.492,0,0,1-3.571,1.181l.216,1.127a13.722,13.722,0,0,1,3.68.107,9.2,9.2,0,0,0,1.353,2.844,7.519,7.519,0,0,1-1.515,1.878l.758.859a9.116,9.116,0,0,1,2-1.288,9.625,9.625,0,0,0,3.463,2.147,15.054,15.054,0,0,1,.216,3.864l1.136.107a13.83,13.83,0,0,1,1.082-3.381,10.216,10.216,0,0,0,2.543-.107,8.417,8.417,0,0,0,1.245-.322,6.622,6.622,0,0,1,1.136,2.093l1.082-.376a8.409,8.409,0,0,1-.433-2.469,9.481,9.481,0,0,0,3.03-2.63,18.88,18.88,0,0,1,3.517,1.4l.541-.966A22.165,22.165,0,0,1,575.576,71.453ZM564.537,58.626Z" transform="translate(-552.828 -54.816)"/><g class="ax" transform="translate(10.712 4.347)"><path class="b" d="M577.871,71.96c-.487-.161-.541-1.127-.92-2.361l-.162-.483c-.054-.161-.108-.322-.162-.537-.162-.322-.271-.7-.487-1.073a7.7,7.7,0,0,0-1.515-2.039,7.579,7.579,0,0,0-2.11-1.4c-.379-.161-.758-.322-1.082-.429-.162-.054-.379-.107-.541-.161a1.592,1.592,0,0,0-.487-.107c-1.3-.322-2.273-.322-2.435-.805-.054-.107,0-.215.054-.376a1.165,1.165,0,0,1,.433-.483A4.4,4.4,0,0,1,570.4,60.9c.216-.054.433-.054.7-.107h.758a6.414,6.414,0,0,1,1.677.268,8.193,8.193,0,0,1,1.786.7A7.5,7.5,0,0,1,577,63a7.083,7.083,0,0,1,1.3,1.61,6.671,6.671,0,0,1,.758,1.717,9.993,9.993,0,0,1,.325,1.664v.751a2.811,2.811,0,0,1-.054.7,4.97,4.97,0,0,1-.7,1.986,3.193,3.193,0,0,1-.433.429A.261.261,0,0,1,577.871,71.96Z" transform="translate(-567.945 -60.797)"/></g><g transform="translate(0 1.621)"><g transform="translate(4.465)"><path class="aw" d="M560.794,56.91c.162.161-.108.644-.6,1.02a2.961,2.961,0,0,1-.487.376.868.868,0,0,1-.649.161c-.162-.161.108-.644.6-1.02S560.631,56.749,560.794,56.91Z" transform="translate(-559.015 -56.868)"/><path class="ay" d="M560.088,58.531a5.554,5.554,0,0,0,.866-.751l.487.483a3.229,3.229,0,0,1-1.19.483Z" transform="translate(-559.337 -57.147)"/></g><g transform="translate(1.752 6.317)"><path class="aw" d="M556,65.977c.216.054.216.59,0,1.181a5.523,5.523,0,0,1-.216.537c-.162.322-.325.483-.487.429-.216-.054-.216-.59,0-1.181C555.462,66.353,555.787,65.923,556,65.977Z" transform="translate(-555.137 -65.973)"/><path class="ay" d="M556.066,67.981a2.416,2.416,0,0,0,.325-1.073,3.069,3.069,0,0,1,.649.215,3.9,3.9,0,0,1-.758.966Z" transform="translate(-555.416 -66.259)"/></g><g transform="translate(0 12.329)"><path class="aw" d="M552.816,74.64c.216-.054.487.429.6,1.02a2.392,2.392,0,0,1,.054.59c0,.322-.054.59-.216.59-.217.054-.487-.429-.6-1.02C552.6,75.231,552.653,74.694,552.816,74.64Z" transform="translate(-552.633 -74.636)"/><path class="ay" d="M553.784,76.317a4.084,4.084,0,0,0-.271-1.127l.649-.161A4.185,4.185,0,0,1,554,76.263Z" transform="translate(-552.898 -74.757)"/></g><g transform="translate(3.652 18.29)"><path class="aw" d="M557.9,83.594c.162-.161.649.107,1.028.59a2.952,2.952,0,0,1,.379.483.85.85,0,0,1,.162.644c-.162.161-.649-.107-1.028-.59C558.01,84.238,557.739,83.755,557.9,83.594Z" transform="translate(-557.854 -83.326)"/><path class="ay" d="M559.608,84.516a2.232,2.232,0,0,0-.758-.805l.487-.483a4.824,4.824,0,0,1,.487,1.127Z" transform="translate(-558.153 -83.228)"/></g></g><g transform="translate(10.14 18.825)"><g transform="translate(0 6.454)"><path class="aw" d="M567.127,92.154c0-.215.541-.322,1.191-.268a1.96,1.96,0,0,1,.6.107c.325.107.541.215.541.376,0,.215-.541.322-1.19.268S567.127,92.368,567.127,92.154Z" transform="translate(-567.127 -91.241)"/><path class="ay" d="M569.114,91.714a3.011,3.011,0,0,0-1.136-.054v-.7a3.978,3.978,0,0,1,1.136.537Z" transform="translate(-567.382 -90.963)"/></g><g transform="translate(7.355 4.742)"><path class="aw" d="M577.644,89.778c-.054-.215.379-.537.974-.751.217-.054.379-.107.6-.161.325-.054.6,0,.649.107.054.215-.379.537-.974.751C578.239,89.992,577.7,89.992,577.644,89.778Z" transform="translate(-577.639 -88.603)"/><path class="ay" d="M579.154,88.812a3.532,3.532,0,0,0-1.082.376,3.267,3.267,0,0,0-.271-.644,4.583,4.583,0,0,1,1.245,0Z" transform="translate(-577.688 -88.496)"/></g><g transform="translate(14.232)"><path class="aw" d="M588.365,83.661c-.162-.107-.054-.644.217-1.181a3.751,3.751,0,0,1,.325-.483c.216-.268.433-.376.541-.322.162.107.054.644-.217,1.181S588.581,83.768,588.365,83.661Z" transform="translate(-587.716 -81.662)"/><path class="ay" d="M588.66,82.175a3.1,3.1,0,0,0-.541,1.02,3.613,3.613,0,0,0-.649-.322,3.235,3.235,0,0,1,.974-.805Z" transform="translate(-587.469 -81.786)"/></g></g><g transform="translate(7.735 13.297)"><path class="ay" d="M566.11,75.9c.108.751-.162,1.4-.649,1.5s-.974-.429-1.136-1.181.162-1.4.649-1.5C565.46,74.664,566,75.2,566.11,75.9Z" transform="translate(-563.867 -74.008)"/><path class="aw" d="M565.5,74.889c.108.751-.162,1.4-.649,1.5s-.974-.429-1.136-1.181c-.108-.751.162-1.4.649-1.5S565.336,74.192,565.5,74.889Z" transform="translate(-563.689 -73.696)"/><path class="az" d="M565.5,74.889c.108.751-.162,1.4-.649,1.5s-.974-.429-1.136-1.181c-.108-.751.162-1.4.649-1.5S565.336,74.192,565.5,74.889Z" transform="translate(-563.689 -73.696)"/></g><g transform="translate(7.121 6.726)"><path class="ay" d="M564.146,65.434c.6-.429,1.3-.483,1.623-.107s.108,1.073-.487,1.556c-.6.429-1.3.483-1.623.107S563.55,65.917,564.146,65.434Z" transform="translate(-563.021 -64.485)"/><path class="aw" d="M563.449,64.583c.6-.429,1.3-.483,1.623-.107s.108,1.073-.487,1.556c-.6.429-1.3.483-1.623.107A1.163,1.163,0,0,1,563.449,64.583Z" transform="translate(-562.811 -64.225)"/><path class="az" d="M563.449,64.583c.6-.429,1.3-.483,1.623-.107s.108,1.073-.487,1.556c-.6.429-1.3.483-1.623.107A1.163,1.163,0,0,1,563.449,64.583Z" transform="translate(-562.811 -64.225)"/></g><g transform="translate(11.472 17.529)"><path class="ay" d="M570.938,81.132a.881.881,0,1,1-1.028-.7A.859.859,0,0,1,570.938,81.132Z" transform="translate(-569.077 -79.984)"/><path class="aw" d="M570.783,80.513a.881.881,0,1,1-1.028-.7A.841.841,0,0,1,570.783,80.513Z" transform="translate(-569.03 -79.795)"/><path class="ba" d="M570.783,80.513a.881.881,0,1,1-1.028-.7A.841.841,0,0,1,570.783,80.513Z" transform="translate(-569.03 -79.795)"/></g><g transform="translate(15.767 7.776)"><ellipse class="ay" cx="1.082" cy="1.073" rx="1.082" ry="1.073" transform="translate(0 0.543)"/><path class="aw" d="M577.557,67.408a1.117,1.117,0,0,1-1.515.322,1.1,1.1,0,0,1-.325-1.5,1.117,1.117,0,0,1,1.515-.322A1.06,1.06,0,0,1,577.557,67.408Z" transform="translate(-575.284 -65.738)"/><path class="ba" d="M577.557,67.408a1.117,1.117,0,0,1-1.515.322,1.1,1.1,0,0,1-.325-1.5,1.117,1.117,0,0,1,1.515-.322A1.06,1.06,0,0,1,577.557,67.408Z" transform="translate(-575.284 -65.738)"/></g><g transform="translate(16.571 17.864)"><path class="ay" d="M577.7,81.287a.658.658,0,1,1-.758-.537A.673.673,0,0,1,577.7,81.287Z" transform="translate(-576.343 -80.42)"/><path class="aw" d="M577.626,80.822a.658.658,0,1,1-.758-.537A.631.631,0,0,1,577.626,80.822Z" transform="translate(-576.319 -80.277)"/><path class="ba" d="M577.626,80.822a.658.658,0,1,1-.758-.537A.631.631,0,0,1,577.626,80.822Z" transform="translate(-576.319 -80.277)"/></g><g transform="translate(10.677)"><g transform="translate(15.859 9.871)"><path class="aw" d="M591.754,70.962c-.216.054-.487-.429-.6-1.02a2.381,2.381,0,0,1-.054-.59c0-.322.054-.59.216-.59.216-.054.487.429.6,1.02S591.971,70.909,591.754,70.962Z" transform="translate(-590.726 -68.758)"/><path class="ay" d="M590.942,69.692a3.524,3.524,0,0,0,.271,1.073l-.649.161a4.187,4.187,0,0,1,.162-1.234Z" transform="translate(-590.563 -69.044)"/></g><g transform="translate(11.693 4.086)"><path class="aw" d="M586.245,62.184c-.162.161-.6-.107-1.028-.59a2.953,2.953,0,0,1-.379-.483.85.85,0,0,1-.162-.644c.162-.161.6.107,1.028.59C586.137,61.594,586.354,62.077,586.245,62.184Z" transform="translate(-584.622 -60.42)"/><path class="ay" d="M584.824,61.57a2.232,2.232,0,0,0,.757.805,4.12,4.12,0,0,0-.487.483,4.828,4.828,0,0,1-.487-1.127Z" transform="translate(-584.608 -60.772)"/></g><g transform="translate(7.139)"><path class="aw" d="M580.271,55.39c-.054.215-.6.215-1.191,0a5.644,5.644,0,0,1-.541-.215c-.271-.161-.487-.322-.433-.483.054-.215.6-.215,1.19,0C579.892,54.853,580.325,55.175,580.271,55.39Z" transform="translate(-578.098 -54.531)"/><path class="ay" d="M578.76,55.46a2.8,2.8,0,0,0,1.082.322,3,3,0,0,1-.217.644,3.924,3.924,0,0,1-.974-.751Z" transform="translate(-578.265 -54.816)"/></g><g transform="translate(0 0.517)"><path class="aw" d="M570.117,55.457c.054.215-.433.483-1.028.59a2.446,2.446,0,0,1-.6.054c-.325,0-.6-.054-.6-.215-.054-.215.433-.483,1.028-.59C569.522,55.242,570.063,55.3,570.117,55.457Z" transform="translate(-567.894 -55.276)"/><path class="ay" d="M568.828,56.424a2.406,2.406,0,0,0,1.082-.268l.162.644a3.98,3.98,0,0,1-1.191-.161Z" transform="translate(-568.175 -55.545)"/></g></g><g transform="translate(18.031 14.099)"><path class="ay" d="M580.255,77.042a1.271,1.271,0,0,1-1.3,1.02c-.487-.107-.7-.859-.433-1.556a1.271,1.271,0,0,1,1.3-1.02C580.255,75.647,580.472,76.345,580.255,77.042Z" transform="translate(-578.406 -75.04)"/><path class="aw" d="M580.719,76.424a1.271,1.271,0,0,1-1.3,1.02c-.487-.161-.7-.859-.433-1.556a1.271,1.271,0,0,1,1.3-1.02C580.719,75.028,580.936,75.726,580.719,76.424Z" transform="translate(-578.545 -74.851)"/><path class="ba" d="M580.719,76.424a1.271,1.271,0,0,1-1.3,1.02c-.487-.161-.7-.859-.433-1.556a1.271,1.271,0,0,1,1.3-1.02C580.719,75.028,580.936,75.726,580.719,76.424Z" transform="translate(-578.545 -74.851)"/></g><g transform="translate(12.289 10.757)"><path class="ay" d="M573.02,72.221a1.348,1.348,0,1,1-1.569-1.073A1.286,1.286,0,0,1,573.02,72.221Z" transform="translate(-570.246 -70.366)"/><path class="aw" d="M572.866,71.138a1.348,1.348,0,0,1-2.652.483,1.382,1.382,0,0,1,1.082-1.556A1.336,1.336,0,0,1,572.866,71.138Z" transform="translate(-570.199 -70.034)"/><path class="az" d="M572.866,71.138a1.348,1.348,0,0,1-2.652.483,1.382,1.382,0,0,1,1.082-1.556A1.336,1.336,0,0,1,572.866,71.138Z" transform="translate(-570.199 -70.034)"/></g><g class="bb" transform="translate(6.079 17.577)"><path d="M575.069,81.5c.054.107,0,.322-.27.644a5.075,5.075,0,0,1-1.353,1.127c-.325.215-.7.376-1.082.59a9.955,9.955,0,0,1-1.353.429,8.112,8.112,0,0,1-3.247.215,9.741,9.741,0,0,1-3.139-.966,6.414,6.414,0,0,1-1.19-.751c-.325-.268-.649-.537-.92-.805a4.71,4.71,0,0,1-1.028-1.4c-.162-.376-.216-.644-.108-.7.217-.161.866.429,1.948,1.181.271.161.6.376.92.537a6.6,6.6,0,0,0,1.082.483,10.105,10.105,0,0,0,2.651.7,11.227,11.227,0,0,0,2.706-.054,7.734,7.734,0,0,0,1.19-.268c.379-.107.7-.215,1.028-.322C574.149,81.715,574.907,81.286,575.069,81.5Z" transform="translate(-561.322 -79.864)"/></g><g class="bb" transform="translate(4.759 14.306)"><path d="M560.108,75.173a.8.8,0,1,1-.649.966A.8.8,0,0,1,560.108,75.173Z" transform="translate(-559.435 -75.15)"/></g></g><g transform="translate(213.825 52.717)"><path class="aw" d="M372.947,141.259a5.649,5.649,0,0,0,.433-2.522,10.673,10.673,0,0,1,2.543-.912l-.162-.751a13.936,13.936,0,0,1-2.706-.054,7.09,7.09,0,0,0-.866-1.825,4.35,4.35,0,0,1,1.082-1.4l-.487-.59a4.613,4.613,0,0,1-1.515.912,9.942,9.942,0,0,0-1.191-.912,10.416,10.416,0,0,1,.487-2.683l-.7-.268a11.353,11.353,0,0,1-1.407,2.254,7.472,7.472,0,0,0-1.948-.215,4.764,4.764,0,0,1-.649-1.664l-.758.161a6.278,6.278,0,0,1,.054,1.717,8.027,8.027,0,0,0-1.569.644,10.1,10.1,0,0,1-2.11-1.717l-.6.537a8.937,8.937,0,0,1,1.245,2.308,6.585,6.585,0,0,0-1.245,1.771,4.083,4.083,0,0,1-1.677-.268l-.271.751a7.416,7.416,0,0,1,1.461.7,5.985,5.985,0,0,0-.216,1.717,11.128,11.128,0,0,1-2.435.805l.162.751a9.427,9.427,0,0,1,2.489.054,5.815,5.815,0,0,0,.92,1.932,4.356,4.356,0,0,1-1.028,1.288l.541.59a5.371,5.371,0,0,1,1.353-.859,6.533,6.533,0,0,0,2.327,1.449,9.9,9.9,0,0,1,.162,2.63l.758.054a8.913,8.913,0,0,1,.758-2.308,6.246,6.246,0,0,0,1.732-.054,5.1,5.1,0,0,0,.866-.215,3.949,3.949,0,0,1,.758,1.449l.758-.268a5.824,5.824,0,0,1-.325-1.664,6.07,6.07,0,0,0,2.056-1.825,13.345,13.345,0,0,1,2.381.966l.379-.7A19.843,19.843,0,0,1,372.947,141.259Zm-7.522-8.748Z" transform="translate(-357.439 -129.908)"/><g class="ax" transform="translate(7.315 2.979)"><path class="b" d="M374.551,141.668c-.325-.107-.379-.751-.6-1.61a.759.759,0,0,0-.108-.322,3.4,3.4,0,0,1-.108-.376c-.108-.215-.216-.483-.325-.751a6.19,6.19,0,0,0-1.028-1.4,4.328,4.328,0,0,0-1.461-.966,4.267,4.267,0,0,0-.758-.268,3.469,3.469,0,0,0-.379-.107.774.774,0,0,1-.325-.107c-.866-.215-1.569-.215-1.678-.537-.054-.054,0-.161.054-.268a1.426,1.426,0,0,1,.271-.322,2.919,2.919,0,0,1,1.353-.537,1.509,1.509,0,0,1,.487-.054h.541a4.151,4.151,0,0,1,1.136.161,7.375,7.375,0,0,1,1.245.483,4.225,4.225,0,0,1,1.136.859,3.5,3.5,0,0,1,.866,1.127,5.735,5.735,0,0,1,.541,1.181,10.191,10.191,0,0,1,.216,1.127v.537a1.475,1.475,0,0,1-.054.483,3.188,3.188,0,0,1-.487,1.342.72.72,0,0,1-.325.268A.327.327,0,0,1,374.551,141.668Z" transform="translate(-367.765 -134.047)"/></g><g transform="translate(0 1.087)"><g transform="translate(3.035)"><path class="aw" d="M362.865,131.334c.108.107-.108.429-.433.7a1.131,1.131,0,0,1-.325.215c-.216.107-.379.161-.433.107-.108-.107.108-.429.433-.7S362.757,131.28,362.865,131.334Z" transform="translate(-361.646 -131.32)"/><path class="ay" d="M362.382,132.495a3.552,3.552,0,0,0,.6-.537l.325.322a2.449,2.449,0,0,1-.812.322Z" transform="translate(-361.867 -131.515)"/></g><g transform="translate(1.175 4.354)"><path class="aw" d="M359.577,137.6c.108.054.162.429,0,.805a2.614,2.614,0,0,1-.162.376q-.162.322-.325.322c-.108-.054-.162-.429,0-.805C359.252,137.816,359.468,137.548,359.577,137.6Z" transform="translate(-358.987 -137.595)"/><path class="ay" d="M359.675,138.9a1.749,1.749,0,0,0,.216-.751,1.283,1.283,0,0,0,.433.107s-.271.537-.541.644Z" transform="translate(-359.194 -137.764)"/></g><g transform="translate(0 8.434)"><path class="aw" d="M357.449,143.481c.162-.054.325.268.433.7a1.039,1.039,0,0,1,.054.376c0,.215-.054.376-.162.429-.162.054-.325-.268-.433-.7C357.287,143.856,357.287,143.534,357.449,143.481Z" transform="translate(-357.308 -143.475)"/><path class="ay" d="M358.059,144.651a1.942,1.942,0,0,0-.162-.751c.162-.054.325-.054.487-.107a3.2,3.2,0,0,1-.108.859Z" transform="translate(-357.485 -143.572)"/></g><g transform="translate(2.493 12.465)"><path class="aw" d="M360.9,149.582c.108-.107.433.107.7.429.108.107.162.215.271.322.108.215.162.376.108.429-.108.107-.433-.107-.7-.429S360.792,149.689,360.9,149.582Z" transform="translate(-360.872 -149.367)"/><path class="ay" d="M362.073,150.2a2.006,2.006,0,0,0-.541-.59l.325-.322a2.407,2.407,0,0,1,.325.805Z" transform="translate(-361.07 -149.285)"/></g></g><g transform="translate(6.905 12.84)"><g transform="translate(0 4.361)"><path class="aw" d="M367.178,155.455c0-.161.379-.215.812-.215.162,0,.271.054.379.054.216.054.379.161.379.268,0,.161-.379.215-.812.215C367.5,155.723,367.178,155.562,367.178,155.455Z" transform="translate(-367.178 -154.757)"/><path class="ay" d="M368.554,155.081a2.28,2.28,0,0,0-.758-.054v-.483a2.441,2.441,0,0,1,.812.376Z" transform="translate(-367.364 -154.544)"/></g><g transform="translate(5.026 3.24)"><path class="aw" d="M374.369,153.81c-.054-.107.216-.376.649-.483a1.385,1.385,0,0,1,.379-.107.5.5,0,0,1,.433.054c.054.107-.216.376-.649.483C374.8,153.971,374.423,153.971,374.369,153.81Z" transform="translate(-374.362 -153.011)"/><path class="ay" d="M375.469,153.137a1.644,1.644,0,0,0-.7.268c-.054-.161-.108-.268-.162-.429a2.223,2.223,0,0,1,.866,0Z" transform="translate(-374.434 -152.929)"/></g><g transform="translate(9.74)"><path class="aw" d="M381.7,149.615c-.108-.054-.054-.429.162-.805.054-.107.162-.215.216-.322.162-.161.271-.268.379-.215s.054.429-.162.805S381.8,149.722,381.7,149.615Z" transform="translate(-381.264 -148.259)"/><path class="ay" d="M381.913,148.642a3.245,3.245,0,0,0-.379.7,3.224,3.224,0,0,0-.433-.215s.379-.483.649-.537Z" transform="translate(-381.101 -148.36)"/></g></g><g transform="translate(5.253 9.092)"><path class="ay" d="M366.5,144.363c.108.483-.108.966-.433,1.02s-.7-.268-.758-.805c-.108-.483.108-.966.433-1.02S366.446,143.826,366.5,144.363Z" transform="translate(-364.957 -143.07)"/><path class="aw" d="M366.036,143.667c.108.483-.108.966-.433,1.02s-.7-.268-.758-.805c-.108-.483.108-.966.433-1.02S365.982,143.184,366.036,143.667Z" transform="translate(-364.817 -142.857)"/><path class="az" d="M366.036,143.667c.108.483-.108.966-.433,1.02s-.7-.268-.758-.805c-.108-.483.108-.966.433-1.02S365.982,143.184,366.036,143.667Z" transform="translate(-364.817 -142.857)"/></g><g transform="translate(4.848 4.555)"><path class="ay" d="M365.141,137.186c.379-.322.92-.322,1.082-.054.216.268.054.751-.325,1.073s-.92.322-1.082.054C364.6,137.991,364.762,137.508,365.141,137.186Z" transform="translate(-364.383 -136.508)"/><path class="aw" d="M364.672,136.567c.379-.322.92-.322,1.082-.054.216.268.054.751-.325,1.073s-.92.322-1.082.054C364.131,137.372,364.239,136.889,364.672,136.567Z" transform="translate(-364.239 -136.318)"/><path class="az" d="M364.672,136.567c.379-.322.92-.322,1.082-.054.216.268.054.751-.325,1.073s-.92.322-1.082.054C364.131,137.372,364.239,136.889,364.672,136.567Z" transform="translate(-364.239 -136.318)"/></g><g transform="translate(7.816 11.933)"><path class="ay" d="M369.757,147.908a.6.6,0,1,1-.7-.483A.607.607,0,0,1,369.757,147.908Z" transform="translate(-368.504 -147.094)"/><path class="aw" d="M369.68,147.443a.6.6,0,1,1-.7-.483A.607.607,0,0,1,369.68,147.443Z" transform="translate(-368.481 -146.952)"/><path class="ba" d="M369.68,147.443a.6.6,0,1,1-.7-.483A.607.607,0,0,1,369.68,147.443Z" transform="translate(-368.481 -146.952)"/></g><g transform="translate(10.693 5.336)"><ellipse class="ay" cx="0.758" cy="0.751" rx="0.758" ry="0.751" transform="translate(0 0.326)"/><path class="aw" d="M374.33,138.575a.774.774,0,0,1-1.028.215.76.76,0,0,1-.216-1.02.774.774,0,0,1,1.028-.215A.749.749,0,0,1,374.33,138.575Z" transform="translate(-372.707 -137.444)"/><path class="ba" d="M374.33,138.575a.774.774,0,0,1-1.028.215.76.76,0,0,1-.216-1.02.774.774,0,0,1,1.028-.215A.749.749,0,0,1,374.33,138.575Z" transform="translate(-372.707 -137.444)"/></g><g transform="translate(11.278 12.2)"><path class="ay" d="M374.359,148.031a.467.467,0,1,1-.541-.376A.424.424,0,0,1,374.359,148.031Z" transform="translate(-373.429 -147.431)"/><path class="aw" d="M374.359,147.722a.467.467,0,1,1-.541-.376A.446.446,0,0,1,374.359,147.722Z" transform="translate(-373.429 -147.336)"/><path class="ba" d="M374.359,147.722a.467.467,0,1,1-.541-.376A.446.446,0,0,1,374.359,147.722Z" transform="translate(-373.429 -147.336)"/></g><g transform="translate(7.278)"><g transform="translate(10.829 6.73)"><path class="aw" d="M383.986,140.961c-.162.054-.325-.268-.433-.7a1.04,1.04,0,0,1-.054-.376.689.689,0,0,1,.108-.429c.162-.054.325.268.433.7S384.148,140.908,383.986,140.961Z" transform="translate(-383.282 -139.453)"/><path class="ay" d="M383.46,140.08a1.941,1.941,0,0,0,.162.751c-.162.054-.271.054-.433.107a3.2,3.2,0,0,1,.108-.859Z" transform="translate(-383.189 -139.645)"/></g><g transform="translate(8.015 2.843)"><path class="aw" d="M380.264,135.007c-.108.107-.433-.107-.7-.376a1.124,1.124,0,0,1-.216-.322c-.108-.215-.162-.376-.108-.429.108-.107.433.107.7.376C380.21,134.577,380.318,134.9,380.264,135.007Z" transform="translate(-379.181 -133.851)"/><path class="ay" d="M379.275,134.511a1.527,1.527,0,0,0,.541.537l-.325.322a2.013,2.013,0,0,1-.325-.751Z" transform="translate(-379.167 -134.053)"/></g><g transform="translate(4.862)"><path class="aw" d="M376.136,130.317c-.054.107-.433.107-.812,0a2.652,2.652,0,0,1-.379-.161c-.216-.107-.325-.215-.271-.322s.433-.107.812,0C375.92,130,376.19,130.21,376.136,130.317Z" transform="translate(-374.661 -129.754)"/><path class="ay" d="M375.145,130.411a1.785,1.785,0,0,0,.758.215,1.256,1.256,0,0,0-.108.429,2.377,2.377,0,0,1-.649-.537Z" transform="translate(-374.807 -129.955)"/></g><g transform="translate(0 0.359)"><path class="aw" d="M369.232,130.422c.054.161-.271.322-.7.429a1.065,1.065,0,0,1-.379.054.7.7,0,0,1-.433-.107c-.054-.161.271-.322.7-.429C368.853,130.207,369.178,130.261,369.232,130.422Z" transform="translate(-367.711 -130.271)"/><path class="ay" d="M368.338,131.036a1.986,1.986,0,0,0,.758-.161,1.256,1.256,0,0,0,.108.429,2.754,2.754,0,0,1-.812-.107Z" transform="translate(-367.9 -130.456)"/></g></g><g transform="translate(12.307 9.613)"><path class="ay" d="M376.154,145.089c-.162.483-.541.805-.866.7a.825.825,0,0,1-.325-1.073c.162-.483.541-.805.866-.7A.826.826,0,0,1,376.154,145.089Z" transform="translate(-374.899 -143.727)"/><path class="aw" d="M376.463,144.7c-.162.483-.541.805-.866.7a.825.825,0,0,1-.325-1.073c.162-.483.541-.805.866-.7A.825.825,0,0,1,376.463,144.7Z" transform="translate(-374.992 -143.608)"/><path class="ba" d="M376.463,144.7c-.162.483-.541.805-.866.7a.825.825,0,0,1-.325-1.073c.162-.483.541-.805.866-.7A.825.825,0,0,1,376.463,144.7Z" transform="translate(-374.992 -143.608)"/></g><g transform="translate(8.345 7.32)"><path class="ay" d="M371.175,141.829a.934.934,0,1,1-1.082-.751A.909.909,0,0,1,371.175,141.829Z" transform="translate(-369.26 -140.535)"/><path class="aw" d="M371.1,141.061a.934.934,0,1,1-1.082-.751A1,1,0,0,1,371.1,141.061Z" transform="translate(-369.237 -140.304)"/><path class="az" d="M371.1,141.061a.934.934,0,1,1-1.082-.751A1,1,0,0,1,371.1,141.061Z" transform="translate(-369.237 -140.304)"/></g><g class="bb" transform="translate(4.124 12.032)"><path d="M372.586,148.185c.054.054,0,.215-.162.429a3.57,3.57,0,0,1-.92.751,3.315,3.315,0,0,1-.758.376c-.271.107-.6.215-.92.322a7.327,7.327,0,0,1-2.219.161,6.08,6.08,0,0,1-2.11-.644,5.353,5.353,0,0,1-.812-.483c-.216-.161-.433-.376-.649-.537a3.021,3.021,0,0,1-.7-.966c-.108-.268-.162-.429-.108-.483.162-.107.6.322,1.3.805a3.44,3.44,0,0,0,.649.376,3.212,3.212,0,0,0,.758.322,8.667,8.667,0,0,0,1.786.483,6.9,6.9,0,0,0,1.84-.054l.812-.161c.271-.054.487-.161.7-.215C371.991,148.346,372.478,148.024,372.586,148.185Z" transform="translate(-363.203 -147.095)"/></g><g class="bb" transform="translate(3.251 9.785)"><path d="M362.417,143.866a.577.577,0,0,1,.7.429.6.6,0,0,1-.433.7.577.577,0,0,1-.7-.429A.537.537,0,0,1,362.417,143.866Z" transform="translate(-361.955 -143.855)"/></g></g></g></g></g></g></svg>