<svg xmlns="http://www.w3.org/2000/svg" width="83.874" height="55.916" viewBox="0 0 83.874 55.916"><defs><style>.a{fill:#d3d4d6;}</style></defs><g transform="translate(0 -85.333)"><g transform="translate(0 106.302)"><g transform="translate(0 0)"><path class="a" d="M82.127,213.333H1.747A1.651,1.651,0,0,0,0,215.08v24.463a8.652,8.652,0,0,0,8.737,8.737h66.4a8.652,8.652,0,0,0,8.737-8.737V215.08A1.651,1.651,0,0,0,82.127,213.333ZM12.232,227.312H26.211a1.747,1.747,0,1,1,0,3.495H12.232a1.747,1.747,0,1,1,0-3.495ZM36.695,237.8H12.232a1.747,1.747,0,0,1,0-3.495H36.695a1.747,1.747,0,0,1,0,3.495Zm29.705,0a5.9,5.9,0,0,1-3.495-1.048,5.9,5.9,0,0,1-3.495,1.048,6.99,6.99,0,1,1,0-13.979,5.9,5.9,0,0,1,3.495,1.048,5.9,5.9,0,0,1,3.495-1.048,6.99,6.99,0,1,1,0,13.979Z" transform="translate(0 -213.333)"/></g></g><g transform="translate(0 85.333)"><path class="a" d="M75.137,85.333H8.737A8.652,8.652,0,0,0,0,94.07v3.495a1.651,1.651,0,0,0,1.747,1.747H82.127a1.651,1.651,0,0,0,1.747-1.747V94.07A8.652,8.652,0,0,0,75.137,85.333Z" transform="translate(0 -85.333)"/></g></g></svg>