<svg xmlns="http://www.w3.org/2000/svg" width="64.5" height="64.502" viewBox="0 0 64.5 64.502"><defs><style>.a{fill:#d72018;}</style></defs><path class="a" d="M26.173,5.375H23.216a7.406,7.406,0,0,0-14.244,0H6.016A2.03,2.03,0,0,0,4,7.391v4.031a4.726,4.726,0,0,0,4.7,4.7H23.485a4.726,4.726,0,0,0,4.7-4.7V7.391A2.03,2.03,0,0,0,26.173,5.375Z" transform="translate(6.75)"/><path class="a" d="M38.3,3h-.672V6.359a7.387,7.387,0,0,1-7.391,7.391H15.454A7.387,7.387,0,0,1,8.063,6.359V3H7.391A7.387,7.387,0,0,0,0,10.391V43.986a7.387,7.387,0,0,0,7.391,7.391H27.225l.591-3.306a7.484,7.484,0,0,1,2.043-3.951l2.15-2.15H10.078a2.016,2.016,0,1,1,0-4.031H35.61a.915.915,0,0,1,.376.054h.027l9.675-9.675V10.391A7.387,7.387,0,0,0,38.3,3ZM35.61,33.235H10.078a2.016,2.016,0,0,1,0-4.031H35.61a2.016,2.016,0,0,1,0,4.031Zm0-8.735H10.078a2.016,2.016,0,1,1,0-4.031H35.61a2.016,2.016,0,1,1,0,4.031Z" transform="translate(0 5.063)"/><path class="a" d="M13.792,44.8a2.016,2.016,0,0,1-1.983-2.368l1.424-8.076a2.023,2.023,0,0,1,.559-1.075L33.747,13.328c2.451-2.456,4.859-1.793,6.176-.476l3.325,3.325a4.706,4.706,0,0,1,0,6.652L23.293,42.784a1.986,1.986,0,0,1-1.075.559l-8.076,1.424a1.921,1.921,0,0,1-.349.032Zm8.076-3.44H21.9Z" transform="translate(19.875 19.702)"/></svg>