<svg xmlns="http://www.w3.org/2000/svg" width="50" height="49.999" viewBox="0 0 50 49.999"><defs><style>.a{fill:#38e181;}</style></defs><g transform="translate(-120.003 -709)"><g transform="translate(120.003 709)"><g transform="translate(17.96 5.538)"><path class="a" d="M202.507,59.606l-4.033-1.512-22.57,8.7,7.54,2.828,22.88-8.58Z" transform="translate(-175.904 -58.094)"/></g><g transform="translate(1.43 0)"><g transform="translate(0 0)"><path class="a" d="M38.38.093a1.448,1.448,0,0,0-1.005,0L15,8.484l7.816,2.931L45.157,2.634Z" transform="translate(-14.998 -0.003)"/></g></g><g transform="translate(26.93 12.191)"><path class="a" d="M270,123.978v29.229l22.143-8.232a1.431,1.431,0,0,0,.927-1.339V115.4Z" transform="translate(-270 -115.398)"/></g><g transform="translate(0 12.191)"><path class="a" d="M17.16,121.829V128.7a1.431,1.431,0,0,1-2.07,1.279l-5.72-2.86a1.431,1.431,0,0,1-.79-1.279v-7.231L0,115.394v25.377c0,.035.025.062.027.1A1.482,1.482,0,0,0,.79,142.05l7.789,3.895,14.3,7.15V123.974Zm0,25.209-8.58-4.29v-4.836a1.43,1.43,0,0,1,2.07-1.279l5.72,2.86a1.431,1.431,0,0,1,.79,1.279Z" transform="translate(0 -115.394)"/></g></g></g></svg>