<svg xmlns="http://www.w3.org/2000/svg" width="50" height="50" viewBox="0 0 50 50"><defs><style>.a{fill:#fff;stroke:#d71866;stroke-width:1.5px;}.b{fill:#2c2c30;}.c{stroke:none;}.d{fill:none;}</style></defs><g transform="translate(-599 -1031)"><g class="a" transform="translate(599 1031)"><circle class="c" cx="25" cy="25" r="25"/><circle class="d" cx="25" cy="25" r="24.25"/></g><g transform="translate(609 1043)"><g transform="translate(0 0)"><path class="b" d="M1.777,42.443a2.113,2.113,0,0,1,.366-.027H23l-.455-.212a4.23,4.23,0,0,1-1.2-.846L15.5,35.51a2.189,2.189,0,0,1-.307-2.8,2.115,2.115,0,0,1,3.173-.275L28.943,43.009a2.115,2.115,0,0,1,0,2.991l0,0L18.367,56.578a2.115,2.115,0,0,1-3.173-.212,2.189,2.189,0,0,1,.307-2.8L21.339,47.7a4.231,4.231,0,0,1,1.058-.772l.635-.286H2.259A2.189,2.189,0,0,1,.027,44.87,2.115,2.115,0,0,1,1.777,42.443Z" transform="translate(0 -31.842)"/></g></g></g></svg>