<svg xmlns="http://www.w3.org/2000/svg" width="85.913" height="80" viewBox="0 0 85.913 80"><defs><style>.a{fill:#d3d4d6;}</style></defs><g transform="translate(-0.001 -17.047)"><g transform="translate(0.001 17.047)"><g transform="translate(0 0)"><path class="a" d="M84.471,49.9,71.45,38.067V24.4a4.947,4.947,0,0,0-9.849,0v4.718l-9.695-8.81A13.912,13.912,0,0,0,34,20.315L1.442,49.9a4.194,4.194,0,0,0,0,6.328,5.28,5.28,0,0,0,6.967,0L40.961,26.643a3.123,3.123,0,0,1,3.985,0L77.5,56.227a5.287,5.287,0,0,0,6.967,0A4.193,4.193,0,0,0,84.471,49.9Z" transform="translate(-0.001 -17.047)"/><path class="a" d="M102.539,128.392a2.754,2.754,0,0,0-3.54,0L69.36,154.406a2.075,2.075,0,0,0-.733,1.556v18.974c0,4.452,4.112,8.062,9.183,8.062H92.484V163.046h16.567V183h14.674c5.071,0,9.183-3.61,9.183-8.062V155.962a2.067,2.067,0,0,0-.733-1.556Z" transform="translate(-57.812 -102.998)"/></g></g></g></svg>