<svg xmlns="http://www.w3.org/2000/svg" width="41.904" height="57.31" viewBox="0 0 41.904 57.31"><defs><style>.a{fill:#fff;}</style></defs><g transform="translate(-68.817)"><g transform="translate(68.817)"><path class="a" d="M89.769,0A21.167,21.167,0,0,0,68.817,21.329c0,6.578,3.327,14.563,9.889,23.732a104.575,104.575,0,0,0,9.733,11.7,1.874,1.874,0,0,0,2.629.029,94.39,94.39,0,0,0,9.755-11.4c6.567-9.033,9.9-17.127,9.9-24.056A21.167,21.167,0,0,0,89.769,0Zm0,30.536a10.243,10.243,0,1,1,10.243-10.243A10.255,10.255,0,0,1,89.769,30.536Z" transform="translate(-68.817)"/></g></g></svg>