<svg xmlns="http://www.w3.org/2000/svg" width="58.036" height="71.428" viewBox="0 0 58.036 71.428"><defs><style>.a{fill:#d3d4d6;}</style></defs><g transform="translate(-48)"><g transform="translate(48)"><path class="a" d="M103.8,8.929h-6.7v-6.7A2.233,2.233,0,0,0,94.875,0H54.7A6.7,6.7,0,0,0,48,6.7V62.5a8.938,8.938,0,0,0,8.929,8.929H103.8a2.233,2.233,0,0,0,2.232-2.232V11.161A2.233,2.233,0,0,0,103.8,8.929ZM78.679,61.759a2.231,2.231,0,0,1-3.321,0c-1.429-1.594-13.964-15.795-13.964-23.812a15.625,15.625,0,1,1,31.25,0C92.643,45.964,80.107,60.165,78.679,61.759ZM92.643,8.929H54.7a2.232,2.232,0,1,1,0-4.464H92.643Z" transform="translate(-48)"/></g><g transform="translate(69.928 31.798)"><g transform="translate(0 0)"><ellipse class="a" cx="7.045" cy="6.605" rx="7.045" ry="6.605" transform="translate(0 0)"/></g></g></g></svg>