<svg xmlns="http://www.w3.org/2000/svg" width="59.219" height="65.074" viewBox="0 0 59.219 65.074"><defs><style>.a{fill:#fff;}</style></defs><g transform="translate(-110.2 -99.2)"><path class="a" d="M199.1,373.3a8.771,8.771,0,0,0,17.542,0Z" transform="translate(-70.639 -217.797)"/><path class="a" d="M163.237,181.754h0a21.829,21.829,0,0,1-7.744-16.659v-7.374a15.546,15.546,0,0,1-13.352-15.385,16.689,16.689,0,0,1,.267-2.9,18.021,18.021,0,0,0-5.176-.739,18.26,18.26,0,0,0-18.261,18.261v8.155a21.8,21.8,0,0,1-7.723,16.638h0l-.021.021a2.914,2.914,0,0,0,1.89,5.135h48.21a2.928,2.928,0,0,0,2.917-2.917A2.985,2.985,0,0,0,163.237,181.754Z" transform="translate(0 -31.386)"/><circle class="a" cx="11.749" cy="11.749" r="11.749" transform="translate(145.921 99.2)"/></g></svg>