<svg xmlns="http://www.w3.org/2000/svg" width="61.638" height="61.638" viewBox="0 0 61.638 61.638"><defs><style>.a{fill:#d3d4d6;}</style></defs><g transform="translate(-0.004 -0.001)"><path class="a" d="M173.692,17.925,157,.589a1.927,1.927,0,0,0-3.313,1.338v8.347h-.642A25.069,25.069,0,0,0,128,35.315v3.852a1.9,1.9,0,0,0,1.5,1.842,1.721,1.721,0,0,0,.424.051,1.993,1.993,0,0,0,1.759-1.1,21.066,21.066,0,0,1,18.949-11.711h3.051V36.6A1.927,1.927,0,0,0,157,37.934L173.692,20.6a1.926,1.926,0,0,0,0-2.673Zm0,0" transform="translate(-112.59 0)"/><path class="a" d="M53.937,136.7H7.709A7.714,7.714,0,0,1,0,129V93.045a7.714,7.714,0,0,1,7.7-7.7h7.7a2.568,2.568,0,1,1,0,5.136h-7.7A2.57,2.57,0,0,0,5.14,93.045V129a2.57,2.57,0,0,0,2.569,2.569H53.937A2.569,2.569,0,0,0,56.505,129V108.454a2.568,2.568,0,1,1,5.137,0V129a7.714,7.714,0,0,1-7.7,7.7Zm0,0" transform="translate(0 -75.066)"/></g></svg>