<svg xmlns="http://www.w3.org/2000/svg" width="48.196" height="51.812" viewBox="0 0 48.196 51.812"><defs><style>.a{fill:#d72018;}</style></defs><g transform="translate(-17.867)"><g transform="translate(18.631)"><g transform="translate(0)"><path class="a" d="M65.281,0H32.223L25.418,10.648H72.086Z" transform="translate(-25.418)"/></g></g><g transform="translate(17.867 14.027)"><g transform="translate(0)"><path class="a" d="M17.867,138.617v3.76a7.289,7.289,0,0,0,12.894,4.662,7.283,7.283,0,0,0,11.2,0,7.283,7.283,0,0,0,11.2,0,7.289,7.289,0,0,0,12.894-4.662v-3.76Z" transform="translate(-17.867 -138.617)"/></g></g><g transform="translate(21.59 26.869)"><g transform="translate(0)"><path class="a" d="M91.84,267.1a10.635,10.635,0,0,1-5.6-1.589,10.668,10.668,0,0,1-11.2,0,10.668,10.668,0,0,1-11.2,0,10.668,10.668,0,0,1-9.171.975v23.969H75.906V271.309H89.188v19.148h6.447V266.4A10.622,10.622,0,0,1,91.84,267.1ZM70.115,280.319H61.1v-9.011h9.011Z" transform="translate(-54.658 -265.513)"/></g></g></g></svg>