<svg xmlns="http://www.w3.org/2000/svg" width="116.221" height="57.261" viewBox="0 0 116.221 57.261"><defs><style>.a{fill:#d3d4d6;}</style></defs><g transform="translate(-892.051 -855.102)"><path class="a" d="M54.663,20.341a2.909,2.909,0,0,0-2.505-2L36.337,16.9,30.084,2.266a2.914,2.914,0,0,0-5.36,0L18.472,16.9,2.648,18.341a2.917,2.917,0,0,0-1.655,5.1L12.952,33.924,9.426,49.455A2.913,2.913,0,0,0,13.76,52.6L27.4,44.447,41.043,52.6a2.915,2.915,0,0,0,4.337-3.149L41.854,33.924,53.813,23.437a2.917,2.917,0,0,0,.85-3.1Zm-27,23.949" transform="translate(924.029 854.606)"/><path class="a" d="M34.694,13.092a1.846,1.846,0,0,0-1.59-1.27L23.063,10.91,19.094,1.619a1.85,1.85,0,0,0-3.4,0L11.724,10.91l-10.043.912A1.851,1.851,0,0,0,.63,15.057l7.591,6.656L5.982,31.57a1.849,1.849,0,0,0,2.751,2l8.659-5.177,8.657,5.177a1.85,1.85,0,0,0,2.753-2l-2.238-9.857,7.591-6.656a1.851,1.851,0,0,0,.539-1.965Zm-17.135,15.2" transform="translate(973.487 878.531)"/><path class="a" d="M34.694,13.092a1.846,1.846,0,0,0-1.59-1.27L23.063,10.91,19.094,1.619a1.85,1.85,0,0,0-3.4,0L11.724,10.91l-10.043.912A1.851,1.851,0,0,0,.63,15.057l7.591,6.656L5.982,31.57a1.849,1.849,0,0,0,2.751,2l8.659-5.177,8.657,5.177a1.85,1.85,0,0,0,2.753-2l-2.238-9.857,7.591-6.656a1.851,1.851,0,0,0,.539-1.965Zm-17.135,15.2" transform="translate(892.052 878.531)"/></g></svg>