<svg xmlns="http://www.w3.org/2000/svg" width="42.567" height="42.567" viewBox="0 0 42.567 42.567"><defs><style>.a{fill:#fff;}</style></defs><path class="a" d="M39.129,18.752a14.421,14.421,0,0,0-23.829,7,1.032,1.032,0,0,1-1,.785H9.382a1.029,1.029,0,0,1-1.013-1.217A21.286,21.286,0,0,1,43.986,13.895l3.065-3.065a2.06,2.06,0,0,1,3.516,1.456V23.791a2.06,2.06,0,0,1-2.06,2.06H37a2.06,2.06,0,0,1-1.456-3.516ZM10.06,32.716H21.565a2.06,2.06,0,0,1,1.456,3.516l-3.583,3.583a14.421,14.421,0,0,0,23.829-7,1.032,1.032,0,0,1,1-.785h4.918A1.029,1.029,0,0,1,50.2,33.247,21.286,21.286,0,0,1,14.581,44.673l-3.065,3.065A2.06,2.06,0,0,1,8,46.281V34.776A2.06,2.06,0,0,1,10.06,32.716Z" transform="translate(-8 -8)"/></svg>