<svg xmlns="http://www.w3.org/2000/svg" xmlns:xlink="http://www.w3.org/1999/xlink" width="720.534" height="493.792" viewBox="0 0 720.534 493.792"><defs><style>.a{fill:#ff5f5f;}.b{fill:#f99191;}.c{fill:#ff2727;}.d{fill:#ff3e3e;}.e{fill:#ea7878;}.f{fill:#fc6d6d;}.g{fill:none;stroke:#f3f3f5;stroke-linecap:round;stroke-width:20px;}.h{fill:url(#a);}.i{fill:#fff;}.j{opacity:0.3;}.k{fill:url(#b);}.l{fill:url(#c);}</style><linearGradient id="a" x1="0.151" y1="1.784" x2="0.768" y2="-0.704" gradientUnits="objectBoundingBox"><stop offset="0" stop-color="#662d91"/><stop offset="0.095" stop-color="#6a2d8d"/><stop offset="0.19" stop-color="#752b81"/><stop offset="0.286" stop-color="#88296d"/><stop offset="0.382" stop-color="#a22651"/><stop offset="0.477" stop-color="#c4222d"/><stop offset="0.524" stop-color="#d72018"/></linearGradient><linearGradient id="b" x1="0.395" y1="0.296" x2="1.174" y2="1.298" gradientUnits="objectBoundingBox"><stop offset="0" stop-color="#aa80f9"/><stop offset="0.996" stop-color="#6165d7"/></linearGradient><linearGradient id="c" x1="0.628" y1="-0.729" x2="0.262" y2="2.791" xlink:href="#a"/></defs><g transform="translate(-215.608 -806.35)"><g transform="translate(337.678 987.044)"><g transform="translate(0)"><rect class="a" width="149.951" height="277.277" transform="translate(49.587)"/><rect class="b" width="149.951" height="277.277" transform="translate(199.452)"/><path class="c" d="M478.666,397.2l-50.777,84.884H343.6V397.2Z" transform="translate(-294.013 -397.2)"/><path class="d" d="M334.887,397.2,285.3,459.63H413.392l56.561-62.43Z" transform="translate(-285.3 -397.2)"/><path class="c" d="M541,399.326l50.437,75.018h81.482V397.2H541Z" transform="translate(-323.516 -397.2)"/><path class="d" d="M541,397.2l56.986,65.577,132.174-1.871L677.172,397.2Z" transform="translate(-323.516 -397.2)"/><rect class="e" width="54.009" height="38.615" transform="translate(267.921 119.331)"/><path class="f" d="M358,710.2s33.426-26.367,57.922-23.135c24.411,3.232,59.2,11.653,109.38-.255,50.182-11.993,59.793-49.246,90.073-49.927l30.279-.68v74Z" transform="translate(-296.166 -432.92)"/></g></g><line class="g" x1="61.089" y2="61.089" transform="translate(720.962 905.582)"/><line class="g" x1="101.63" y2="101.506" transform="translate(820.37 877.814)"/><line class="g" x1="61.089" y2="61.089" transform="translate(250.021 1117.727)"/><line class="g" x1="101.63" y2="101.506" transform="translate(229.75 1184.494)"/><line class="g" x1="33" y2="33.023" transform="translate(588 820.492)"/><line class="g" x1="53.5" y2="53.717" transform="translate(604.5 845.492)"/><g transform="translate(501.6 859.851)"><path class="h" d="M336.378,126.487c0,14.71-20.611,41.555-29.938,52.951a5.808,5.808,0,0,1-8.982,0c-9.327-11.4-29.938-38.241-29.938-52.951a34.429,34.429,0,0,1,68.858,0Z" transform="translate(-267.52 -92.06)"/><ellipse class="i" cx="19.199" cy="19.199" rx="19.199" ry="19.199" transform="translate(11.598 19.725) rotate(-12.222)"/><g class="j" transform="translate(0 0.417)"><path class="k" d="M301.8,166c2.185-14.383,11.681-18.989,10.052-32.569-1.881-15.663-15.75-19.834-16.084-33.778a22.237,22.237,0,0,1,.826-6.482,34.432,34.432,0,0,0-29.071,34.011c0,14.71,20.611,41.555,29.938,52.951a5.792,5.792,0,0,0,5.371,2.061A39.441,39.441,0,0,1,301.8,166Z" transform="translate(-267.52 -93.17)"/></g><ellipse class="l" cx="7.038" cy="7.038" rx="7.038" ry="7.038" transform="translate(27.393 97.092)"/></g></g></svg>